<svg width="24" height="24" viewBox="0 0 24 24" fill="none" xmlns="http://www.w3.org/2000/svg">
<g clip-path="url(#clip0_1912_2703)">
<path d="M8.31818 10.9681C8.75217 10.9681 9.16839 10.7937 9.47527 10.4831C9.78214 10.1725 9.95455 9.7513 9.95455 9.31209C9.95455 8.87288 9.78214 8.45166 9.47527 8.14109C9.16839 7.83052 8.75217 7.65604 8.31818 7.65604H4.63636V10.9681H8.31818ZM9.13636 12.6242H4.63636V15.9363H9.13636C9.57035 15.9363 9.98657 15.7618 10.2934 15.4512C10.6003 15.1406 10.7727 14.7194 10.7727 14.2802C10.7727 13.841 10.6003 13.4198 10.2934 13.1092C9.98657 12.7986 9.57035 12.6242 9.13636 12.6242ZM10.8243 11.4418C11.4375 11.8149 11.913 12.3813 12.178 13.054C12.4429 13.7267 12.4826 14.4688 12.2912 15.1665C12.0997 15.8643 11.6875 16.4793 11.1177 16.9175C10.5479 17.3556 9.85194 17.5926 9.13636 17.5923H3V6H8.31818C8.94121 6.00007 9.55127 6.18012 10.0767 6.51898C10.6021 6.85784 11.021 7.34143 11.2842 7.91293C11.5474 8.48442 11.6439 9.12008 11.5624 9.74518C11.481 10.3703 11.2249 10.9589 10.8243 11.4418ZM14.8636 6.82802H19.3636V8.07005H14.8636V6.82802ZM21 13.8662H14.8636V14.0732C14.8635 14.5847 15.0334 15.0814 15.3462 15.4832C15.659 15.885 16.0963 16.1685 16.5878 16.288C17.0792 16.4076 17.5961 16.3562 18.0551 16.1422C18.5142 15.9281 18.8886 15.5639 19.1182 15.1082H20.8642C20.6149 16.0259 20.0454 16.8211 19.2612 17.3464C18.477 17.8717 17.5313 18.0915 16.5992 17.9652C15.6671 17.8388 14.8118 17.3749 14.1919 16.6593C13.5719 15.9437 13.2292 15.0249 13.2273 14.0732V12.8312C13.2273 11.7881 13.6367 10.7877 14.3656 10.0501C15.0944 9.31246 16.0829 8.89808 17.1136 8.89808C18.1444 8.89808 19.1329 9.31246 19.8617 10.0501C20.5905 10.7877 21 11.7881 21 12.8312V13.8662ZM19.2785 12.2102C19.1446 11.7336 18.8608 11.3143 18.4701 11.0157C18.0794 10.7171 17.6032 10.5556 17.1136 10.5556C16.6241 10.5556 16.1479 10.7171 15.7572 11.0157C15.3665 11.3143 15.0827 11.7336 14.9487 12.2102H19.2785Z" fill="white"/>
</g>
<defs>
<clipPath id="clip0_1912_2703">
<rect width="24" height="24" fill="white"/>
</clipPath>
</defs>
</svg>
