<svg width="24" height="24" viewBox="0 0 24 24" fill="none" xmlns="http://www.w3.org/2000/svg">
<g clip-path="url(#clip0_1912_2715)">
<path d="M5.88322 18.653C5.58322 18.453 5.32522 18.198 5.02322 17.837C4.86647 17.6452 4.71113 17.4522 4.55722 17.258C4.09422 16.683 3.80222 16.418 3.50022 16.309C3.25052 16.2194 3.04666 16.0342 2.93348 15.7943C2.8203 15.5543 2.80708 15.2792 2.89672 15.0295C2.98637 14.7798 3.17153 14.576 3.41149 14.4628C3.65144 14.3496 3.92652 14.3364 4.17622 14.426C4.92822 14.696 5.43722 15.161 6.12322 16.014C6.02922 15.897 6.46322 16.441 6.55622 16.553C6.74622 16.78 6.88622 16.918 6.99622 16.991C7.20022 17.128 7.58322 17.187 8.14622 17.131C8.16922 16.749 8.24022 16.378 8.34822 16.036C5.38022 15.31 3.70022 13.396 3.70022 9.64002C3.70022 8.40002 4.07022 7.28402 4.75822 6.34802C4.54022 5.45402 4.57322 4.37302 5.06022 3.15602C5.11549 3.01836 5.2007 2.89471 5.30966 2.79405C5.41862 2.69339 5.54862 2.61823 5.69022 2.57402C5.77122 2.55002 5.81722 2.53902 5.89822 2.52702C6.70122 2.40402 7.83522 2.69702 9.31322 3.62302C10.194 3.41711 11.0957 3.31375 12.0002 3.31502C12.9122 3.31502 13.8182 3.41902 14.6842 3.62302C16.1612 2.69002 17.2972 2.39702 18.1062 2.52702C18.1912 2.54002 18.2632 2.55702 18.3242 2.57702C18.4631 2.6228 18.5902 2.69846 18.6966 2.79867C18.803 2.89887 18.8862 3.0212 18.9402 3.15702C19.4272 4.37302 19.4602 5.45402 19.2422 6.34702C19.9332 7.28302 20.3002 8.39202 20.3002 9.64002C20.3002 13.397 18.6262 15.305 15.6582 16.032C15.7832 16.447 15.8482 16.911 15.8482 17.412C15.8483 18.3174 15.8443 19.2227 15.8362 20.128C16.0608 20.177 16.2616 20.3019 16.405 20.4816C16.5483 20.6613 16.6253 20.8849 16.623 21.1147C16.6208 21.3446 16.5395 21.5667 16.3927 21.7436C16.2459 21.9205 16.0427 22.0414 15.8172 22.086C14.6782 22.314 13.8342 21.554 13.8342 20.561L13.8362 20.115L13.8412 19.41C13.8462 18.702 13.8482 18.072 13.8482 17.412C13.8482 16.715 13.6652 16.26 13.4232 16.052C12.7622 15.482 13.0972 14.397 13.9632 14.3C16.9302 13.967 18.3002 12.818 18.3002 9.64002C18.3002 8.68502 17.9882 7.89602 17.3872 7.23602C17.2606 7.09727 17.1756 6.92565 17.142 6.74083C17.1084 6.55602 17.1275 6.36547 17.1972 6.19102C17.3632 5.77702 17.4342 5.23402 17.2932 4.57702L17.2832 4.58002C16.7922 4.71902 16.1732 5.02002 15.4252 5.52902C15.3046 5.61088 15.1676 5.66537 15.0237 5.68869C14.8798 5.71201 14.7325 5.70359 14.5922 5.66402C13.7481 5.43031 12.8761 5.31289 12.0002 5.31502C11.1102 5.31502 10.2282 5.43402 9.40822 5.66502C9.26844 5.70428 9.12179 5.71263 8.97846 5.68949C8.83512 5.66635 8.69855 5.61227 8.57822 5.53102C7.82622 5.02402 7.20422 4.72402 6.71022 4.58402C6.56622 5.23702 6.63722 5.77802 6.80222 6.19102C6.87203 6.36538 6.89133 6.55587 6.8579 6.74068C6.82448 6.9255 6.73968 7.09716 6.61322 7.23602C6.01622 7.89002 5.70022 8.69402 5.70022 9.64002C5.70022 12.812 7.07122 13.968 10.0222 14.3C10.8872 14.397 11.2232 15.477 10.5662 16.048C10.3742 16.216 10.1372 16.78 10.1372 17.412V20.562C10.1372 21.548 9.30222 22.287 8.17722 22.09C7.94899 22.0499 7.74176 21.9319 7.59094 21.7559C7.44013 21.58 7.35509 21.3572 7.35037 21.1255C7.34564 20.8938 7.42153 20.6677 7.56504 20.4857C7.70856 20.3038 7.91081 20.1774 8.13722 20.128V19.138C7.22722 19.199 6.47522 19.05 5.88322 18.653V18.653Z" fill="white"/>
</g>
<defs>
<clipPath id="clip0_1912_2715">
<rect width="24" height="24" fill="white"/>
</clipPath>
</defs>
</svg>
