<?xml version="1.0" standalone="no"?>
<!DOCTYPE svg PUBLIC "-//W3C//DTD SVG 1.1//EN" "http://www.w3.org/Graphics/SVG/1.1/DTD/svg11.dtd">
<svg xmlns="http://www.w3.org/2000/svg">
<metadata>Generated by Fontastic.me</metadata>
<defs>
<font id="ifont" horiz-adv-x="512">
<font-face font-family="ifont" units-per-em="512" ascent="480" descent="-32"/>
<missing-glyph horiz-adv-x="512" />

<glyph glyph-name="right" unicode="&#98;" d="M389 261l-212-212c-3-3-7-5-12-5-5 0-10 2-13 5l-48 48c-3 3-5 8-5 13 0 5 2 9 5 13l152 151-152 152c-3 4-5 8-5 13 0 5 2 9 5 13l48 47c3 4 8 6 13 6 5 0 9-2 12-6l212-212c4-3 6-8 6-13 0-5-2-9-6-13z"/>
<glyph glyph-name="left" unicode="&#99;" d="M408 426l-152-152 152-151c3-4 5-8 5-13 0-5-2-10-5-13l-48-48c-3-3-8-5-13-5-5 0-9 2-12 5l-212 212c-4 4-6 8-6 13 0 5 2 10 6 13l212 212c3 4 7 6 12 6 5 0 10-2 13-6l48-47c3-4 5-8 5-13 0-5-2-9-5-13z"/>
<glyph glyph-name="app" unicode="&#103;" d="M155 422l-54 0c-6 0-11-5-11-11l0-54c0-6 5-12 11-12l54 0c6 0 12 6 12 12l0 54c0 6-6 11-12 11z m128 0l-54 0c-6 0-11-5-11-11l0-54c0-6 5-12 11-12l54 0c6 0 11 6 11 12l0 54c0 6-5 11-11 11z m139-11c0 6-5 11-11 11l-54 0c-6 0-12-5-12-11l0-54c0 0 0 0 0 0 0-6 6-12 12-12l54 0c6 0 11 6 11 12l0 54z m-267-117l-54 0c-6 0-11-5-11-11l0-54c0-6 5-11 11-11l54 0c6 0 12 5 12 11l0 54c0 6-6 11-12 11z m128 0l-54 0c-6 0-11-5-11-11l0-54c0-6 5-11 11-11l54 0c6 0 11 5 11 11l0 54c0 6-5 11-11 11z m128 0l-54 0c-6 0-12-5-12-11l0-54c0 0 0 0 0 0 0-6 6-11 12-11l54 0c6 0 11 5 11 11l0 54c0 6-5 11-11 11z m-256-127l-54 0c-6 0-11-6-11-12l0-54c0-6 5-11 11-11l54 0c6 0 12 5 12 11l0 54c0 6-6 12-12 12z m128 0l-54 0c-6 0-11-6-11-12l0-54c0-6 5-11 11-11l54 0c6 0 11 5 11 11l0 54c0 6-5 12-11 12z m128 0l-54 0c-6 0-12-6-12-12l0-54c0-6 6-11 12-11l54 0c6 0 11 5 11 11l0 54c0 6-5 12-11 12z"/>
<glyph glyph-name="music" unicode="&#109;" d="M494 259c0-32-6-62-17-90l-6-14-53-9c-4-16-13-29-26-39-13-10-28-16-45-16l0-9c0-2 0-5-2-6-2-2-4-3-7-3l-18 0c-3 0-5 1-7 3-1 1-2 4-2 6l0 165c0 3 1 5 2 6 2 2 4 3 7 3l18 0c3 0 5-1 7-3 2-1 2-3 2-6l0-9c14 0 26-4 38-10 11-7 20-16 26-28l20 4c5 18 8 36 8 55 0 28-9 55-25 80-17 25-40 44-68 59-28 15-58 23-90 23-32 0-62-8-90-23-28-15-51-34-68-59-16-25-25-52-25-80 0-19 3-37 8-55l20-4c6 12 15 21 26 28 12 6 24 10 38 10l0 9c0 3 0 5 2 6 2 2 4 3 7 3l18 0c3 0 5-1 7-3 1-1 2-3 2-6l0-165c0-2-1-5-2-6-2-2-4-3-7-3l-18 0c-3 0-5 1-7 3-2 1-2 4-2 6l0 9c-17 0-32 6-45 16-13 10-22 23-26 39l-53 9-6 14c-11 28-17 58-17 90 0 29 7 56 19 83 13 27 30 50 52 69 21 20 46 35 76 47 29 12 59 17 91 17 32 0 62-5 91-17 30-12 55-27 76-47 22-19 39-42 52-69 12-27 19-54 19-83z"/>
<glyph glyph-name="play" unicode="&#116;" d="M394 256c0 4-2 8-6 10l-252 146c-2 1-4 2-7 2-6 0-11-5-11-12 0 0 0-1 0-1l0 0 0-293 0 0c1-5 5-10 11-10 2 0 4 1 6 2l0 0 253 146 0 0c4 2 6 6 6 10z"/>
<glyph glyph-name="times" unicode="&#119;" d="M426 134c0-7-3-14-8-19l-39-39c-5-5-12-8-20-8-7 0-14 3-19 8l-84 84-84-84c-5-5-12-8-19-8-8 0-15 3-20 8l-39 39c-5 5-8 12-8 19 0 8 3 14 8 20l84 84-84 84c-5 5-8 12-8 19 0 8 3 14 8 20l39 38c5 6 12 8 20 8 7 0 14-2 19-8l84-84 84 84c5 6 12 8 19 8 8 0 15-2 20-8l39-38c5-6 8-12 8-20 0-7-3-14-8-19l-84-84 84-84c5-6 8-12 8-20z"/>
<glyph glyph-name="clock" unicode="&#120;" d="M256 492c65 0 120-24 166-70 46-46 70-101 70-166 0-65-24-120-70-166-46-46-101-70-166-70-65 0-120 24-166 70-46 46-70 101-70 166 0 65 24 120 70 166 46 46 101 70 166 70m0-420c51 0 95 18 131 54 35 36 53 79 53 130 0 51-18 95-53 131-36 35-80 53-131 53-51 0-94-18-130-53-36-36-54-80-54-131 0-51 18-94 54-130 36-36 79-54 130-54m18 317c0 0 0-125 0-125 0 0 77-77 77-77 0 0-25-25-25-25 0 0-87 87-87 87 0 0 0 140 0 140 0 0 35 0 35 0"/>
<glyph glyph-name="launch" unicode="&#67;" d="M511 474c-1 20-17 36-37 37-41 3-122 0-198-39-39-21-81-55-114-94 0-1-1-1-1-2l-75-6c-12-1-23-7-30-17l-51-78c-6-8-6-17-3-26 4-9 12-15 21-16l63-10c0-1 0-2 0-4-2-12 2-25 11-34l88-88c7-8 18-12 28-12 2 0 4 0 6 1 2 0 3 0 4 0l10-63c1-9 7-17 16-21 4-1 7-2 11-2 5 0 11 2 15 5l78 51c10 7 16 18 17 30l6 75c1 0 1 1 2 1 39 33 73 74 94 114 39 76 42 157 39 198z m-175-393l-74-49-10 61c32 10 63 24 92 44l-4-49c0-3-1-6-4-7z m-130 37l-88 88c-2 2-3 6-3 9 3 15 7 30 12 44l132-132c-17-6-32-10-44-12-3 0-7 1-9 3z m-118 222l49 4c-20-29-34-60-44-92l-61 10 49 74c1 3 4 4 7 4z m270-155c-24-20-47-35-69-45l-149 149c14 28 30 52 45 69 31 37 69 69 104 87 71 37 145 39 183 36 5 0 9-4 9-9 3-38 1-112-36-183-18-35-50-73-87-104z m-7 91c19 0 38 7 53 22 14 14 22 33 22 53 0 20-8 39-22 53-29 29-77 29-106 0-14-14-22-33-22-53 0-20 8-39 22-53 14-15 34-22 53-22z m-32 107c9 8 20 13 32 13 11 0 23-5 32-13 8-9 13-20 13-32 0-12-5-24-13-32-18-18-47-18-64 0-9 8-13 20-13 32 0 12 4 23 13 32z m-304-293c4 0 8 2 11 4l49 49c6 6 6 16 0 22-6 5-15 5-21 0l-49-49c-6-6-6-16 0-22 3-2 6-4 10-4z m105 30c-6 6-16 6-21 0l-95-94c-5-6-5-16 0-22 3-3 7-4 11-4 4 0 8 1 11 4l94 95c6 5 6 15 0 21z m23-45l-49-49c-5-6-5-15 0-21 3-3 7-5 11-5 4 0 8 2 11 5l49 49c6 6 6 15 0 21-6 6-16 6-22 0z"/>
<glyph glyph-name="grid" unicode="&#69;" d="M432 512l-76 0c-44 0-80-36-80-80l0-76c0-44 36-80 80-80l76 0c44 0 80 36 80 80l0 76c0 44-36 80-80 80z m40-156c0-22-18-40-40-40l-76 0c-22 0-40 18-40 40l0 76c0 22 18 40 40 40l76 0c22 0 40-18 40-40z m-316 156l-76 0c-44 0-80-36-80-80l0-76c0-44 36-80 80-80l76 0c44 0 80 36 80 80l0 76c0 44-36 80-80 80z m40-156c0-22-18-40-40-40l-76 0c-22 0-40 18-40 40l0 76c0 22 18 40 40 40l76 0c22 0 40-18 40-40z m-40-120l-76 0c-44 0-80-36-80-80l0-76c0-44 36-80 80-80l76 0c44 0 80 36 80 80l0 76c0 44-36 80-80 80z m40-156c0-22-18-40-40-40l-76 0c-22 0-40 18-40 40l0 76c0 22 18 40 40 40l76 0c22 0 40-18 40-40z m296 20c-11 0-20-9-20-20 0-22-18-40-40-40l-76 0c-22 0-40 18-40 40l0 76c0 22 18 40 40 40l76 0c16 0 30-9 37-24 4-10 16-15 26-10 10 4 15 16 10 26-12 29-41 48-73 48l-76 0c-44 0-80-36-80-80l0-76c0-44 36-80 80-80l76 0c44 0 80 36 80 80 0 11-9 20-20 20z"/>
<glyph glyph-name="components" unicode="&#70;" d="M220 512l-200 0c-11 0-20-9-20-20l0-200c0-11 9-20 20-20l200 0c11 0 20 9 20 20l0 200c0 11-9 20-20 20z m-20-200l-160 0 0 160 160 0z m300-74c-8 4-16 2-22-4l-200-200c-6-6-8-14-4-22 3-7 10-12 18-12l200 0c11 0 20 9 20 20l0 200c0 8-5 15-12 18z m-28-198l-132 0 132 132z m-80 232c66 0 120 54 120 120 0 66-54 120-120 120-66 0-120-54-120-120 0-66 54-120 120-120z m0 200c44 0 80-36 80-80 0-44-36-80-80-80-44 0-80 36-80 80 0 44 36 80 80 80z m-158-266l-86-86 86-86c8-8 8-20 0-28-8-8-20-8-28 0l-86 86-86-86c-8-8-20-8-28 0-8 8-8 20 0 28l86 86-86 86c-8 8-8 20 0 28 8 8 20 8 28 0l86-86 86 86c8 8 20 8 28 0 8-8 8-20 0-28z"/>
<glyph glyph-name="utilities" unicode="&#72;" d="M459 295c9 2 15 10 15 19l0 102c0 11-9 20-20 20l-80 0c-2 42-37 76-80 76-43 0-78-34-80-76l-80 0c-11 0-20-9-20-20l0-80c-42-2-76-37-76-80 0-43 34-78 76-80l0-80c0-11 9-20 20-20l80 0c2-42 37-76 80-76 43 0 78 34 80 76l80 0c11 0 20 9 20 20l0 102c0 9-6 17-15 19-17 5-29 21-29 39 0 18 12 34 29 39z m-25 32c-27-13-44-40-44-71 0-31 17-58 44-71l0-69-82 0c-6 0-12-3-16-8-4-5-5-11-3-17 1-4 1-7 1-11 0-22-18-40-40-40-22 0-40 18-40 40 0 4 0 7 1 11 2 6 1 12-3 17-4 5-10 8-16 8l-82 0 0 82c0 6-3 12-8 16-5 4-11 5-17 3-4-1-7-1-11-1-22 0-40 18-40 40 0 22 18 40 40 40 4 0 7 0 11-1 6-2 12-1 17 3 5 4 8 10 8 16l0 82 82 0c6 0 12 3 16 8 4 5 5 11 3 17-1 4-1 7-1 11 0 22 18 40 40 40 22 0 40-18 40-40 0-4 0-7-1-11-2-6-1-12 3-17 4-5 10-8 16-8l82 0z"/>
<glyph glyph-name="icons" unicode="&#74;" d="M491 413l-95 95c-5 5-14 5-19 0l-235-235c-2-2-4-5-4-7l-24-118c0-5 1-9 4-13 3-2 6-4 10-4 1 0 1 1 2 1l118 23c3 1 5 2 7 4l236 235c5 6 5 14 0 19z m-341-223l13 62 71-72-61-12z m222-89c-129 55-214-35-239-49-32-17-78-38-88-2-7 21 28 44 51 51 16 5 9 32-8 26-35-11-77-41-70-83 6-31 45-59 120-20 55 29 92 89 208 58 38-10 68-35 81-73 6-16 32-9 27 8-14 40-43 68-82 84z"/>
<glyph glyph-name="fingerprint" unicode="&#65;" d="M169 73c-4 0-7 1-10 4-4 2-6 5-7 9-1 4-1 8 1 12 1 3 4 6 7 8 63 38 63 119 63 168 0 14 5 27 15 37 10 10 23 16 37 16 14 0 28-6 38-16 10-10 15-23 15-37 0-5-2-9-5-13-3-3-8-5-12-5-5 0-10 2-13 5-3 4-5 8-5 13 0 5-2 9-5 12-3 4-8 6-13 6-4 0-9-2-12-6-3-3-5-7-5-12 0-53 0-150-80-198-2-2-6-3-9-3z m88-25c40 41 63 98 69 171 1 2 0 5 0 7-1 2-2 4-4 6-1 2-3 3-5 4-2 1-4 2-7 2-2 0-4 0-7 0-2-1-4-2-6-4-1-1-3-3-4-5-1-2-2-5-2-7-5-65-25-114-59-149-4-3-6-8-6-13 0-4 2-9 6-12 3-3 7-5 12-5 5 0 9 2 13 5z m91 3c11 18 20 37 27 57 1 4 1 9-1 13-2 4-6 8-10 9-4 2-9 2-13 0-4-2-8-6-9-10-7-18-14-34-24-50-1-2-2-5-2-7-1-2-1-5 0-7 1-2 2-4 3-6 1-2 3-4 5-5 4-2 9-3 13-2 3 1 5 2 7 3 1 1 3 3 4 5z m42 113c6 36 9 73 9 110 0 25-8 50-22 70-14 21-34 37-58 46-23 9-48 11-73 5-24-6-46-19-62-38-2-2-3-4-4-6-1-2-1-5-1-7 0-3 0-5 1-7 1-2 3-4 5-6 1-1 3-3 6-3 2-1 4-1 7-1 2 0 4 1 6 2 2 1 4 2 6 4 12 13 27 23 45 27 17 4 35 3 52-3 16-7 31-18 41-33 10-15 15-32 15-50 1-35-2-69-8-103-1-5 0-10 3-14 3-4 7-6 11-7 1-1 2-1 4-1 4 0 8 2 11 4 3 3 5 7 6 11z m-203 110c0 5 1 10 2 15 0 2 0 4 0 7-1 2-2 4-3 6-1 2-3 4-5 5-2 2-4 3-7 3-2 0-5 0-7 0-2-1-4-2-6-3-2-2-4-4-5-6-1-2-2-4-2-6-1-7-2-14-2-21 0-83-24-125-70-125-5 0-10-2-13-5-3-3-5-8-5-12 0-5 2-10 5-13 3-3 8-5 13-5 68 0 105 57 105 160z m242-221c29 70 42 145 40 221 0 29-6 58-19 85-1 2-3 4-4 6-2 1-4 2-6 3-3 1-5 1-7 1-2 0-5-1-7-2-2-1-4-2-5-4-2-2-3-4-4-6-1-2-1-4-1-7 0-2 1-4 2-7 10-21 16-45 16-69 2-71-11-141-37-206-1-2-2-5-2-7 0-2 0-5 1-7 1-2 2-4 4-6 1-1 3-3 5-4 3-1 5-1 8-1 3 0 6 1 9 3 3 1 5 4 7 7z m-312 167l0 54c0 42 17 83 46 113 30 30 70 47 112 47 35 0 68-11 95-32 4-3 9-4 14-4 4 1 8 4 11 7 3 4 4 9 3 14 0 4-3 8-6 11-34 26-75 39-117 39-51 0-100-20-137-57-36-37-56-86-56-138l0-54c0-4 1-9 5-12 3-3 8-5 12-5 5 0 9 2 13 5 3 3 5 8 5 12z"/>
<glyph glyph-name="cart" unicode="&#76;" d="M256 469c34 0 67-13 91-37 24-24 37-57 37-91l0-21 85 0 0-43-25 0-16-193c0-6-3-11-7-14-3-4-9-6-14-6l-302 0c-5 0-11 2-14 6-4 3-7 8-7 14l-16 193-25 0 0 43 85 0 0 21c0 34 13 67 37 91 24 24 57 37 91 37z m146-192l-292 0 15-170 262 0z m-125-42l0-86-42 0 0 86z m-85 0l0-86-43 0 0 86z m171 0l0-86-43 0 0 86z m-107 192c-22 0-43-9-59-24-16-15-25-36-26-57l0-5 0-21 170 0 0 21c0 22-8 43-23 59-15 16-36 25-58 27z"/>
<glyph glyph-name="heart" unicode="&#77;" d="M352 448c65 0 117-53 117-128 0-149-160-235-213-267-53 32-213 118-213 267 0 75 53 128 117 128 40 0 75-21 96-43 21 22 56 43 96 43z m-76-333c19 12 36 24 52 36 63 51 99 106 99 169 0 50-33 85-75 85-23 0-48-12-66-30l-30-30-30 30c-18 18-43 30-66 30-41 0-75-35-75-85 0-63 36-118 99-169 16-12 33-24 52-36 6-4 13-8 20-12 7 4 14 8 20 12z"/>
<glyph glyph-name="heart-full" unicode="&#78;" d="M352 448c65 0 117-53 117-128 0-149-160-235-213-267-53 32-213 118-213 267 0 75 53 128 117 128 40 0 75-21 96-43 21 22 56 43 96 43z"/>
<glyph glyph-name="location" unicode="&#117;" d="M256 0l-152 150c-30 30-50 67-59 109-8 41-4 83 13 122 16 39 43 72 79 95 35 24 77 36 119 36 42 0 84-12 119-36 36-23 63-56 79-95 17-39 21-81 13-122-9-42-29-79-59-109z m118 183c23 23 39 53 46 85 6 32 3 65-10 95-12 30-34 56-61 74-28 18-60 28-93 28-33 0-65-10-93-28-27-18-49-44-61-74-13-30-16-63-10-95 7-32 23-62 46-85l118-116z m-118 70c-13 0-25 5-34 14-9 8-14 20-14 33 0 12 5 24 14 33 9 9 21 14 34 14 13 0 25-5 34-14 9-9 14-21 14-33 0-13-5-25-14-33-9-9-21-14-34-14z"/>
<glyph glyph-name="add-to-cart" unicode="&#114;" d="M8 487c0 5 2 9 5 12 3 3 7 5 12 5l49 0c4 0 8-1 10-4 3-2 5-5 6-9l14-53 383 0c3 0 5-1 7-2 2-1 4-2 6-4 1-2 3-4 3-7 1-2 1-4 0-7l-49-264c-1-4-3-7-6-10-3-2-6-4-10-4l-298 0c-3 0-7 2-10 4-3 3-5 6-6 10l-49 264-14 53-36 0c-5 0-9 1-12 5-3 3-5 7-5 11z m103-82l43-232 270 0 43 232z m62-265c-17 0-34-7-46-19-13-12-20-29-20-47 0-17 7-34 20-46 12-13 29-20 46-20 18 0 35 7 47 20 13 12 19 29 19 46 0 18-6 35-19 47-12 12-29 19-47 19z m232 0c-18 0-35-7-47-19-12-12-19-29-19-47 0-17 7-34 19-46 12-13 29-20 47-20 17 0 34 7 46 20 13 12 20 29 20 46 0 18-7 35-20 47-12 12-29 19-46 19z m-232-33c-8 0-17-3-23-9-6-7-10-15-10-24 0-8 4-17 10-23 6-6 15-10 23-10 9 0 18 4 24 10 6 6 9 15 9 23 0 9-3 17-9 24-6 6-15 9-24 9z m232 0c-9 0-18-3-24-9-6-7-9-15-9-24 0-8 3-17 9-23 6-6 15-10 24-10 8 0 17 4 23 10 6 6 10 15 10 23 0 9-4 17-10 24-6 6-15 9-23 9z m-116 273c4 0 9-2 12-5 3-3 5-7 5-12l0-49 49 0c4 0 9-2 12-5 3-3 5-7 5-12 0-4-2-8-5-11-3-3-8-5-12-5l-49 0 0-50c0-4-2-8-5-11-3-4-8-5-12-5-4 0-9 1-12 5-3 3-4 7-4 11l0 50-50 0c-4 0-9 2-12 5-3 3-5 7-5 11 0 5 2 9 5 12 3 3 8 5 12 5l50 0 0 49c0 5 1 9 4 12 3 3 8 5 12 5z"/>
<glyph glyph-name="rotate-left" unicode="&#75;" d="M193 339l90 0c29 0 56-11 76-32 20-20 32-48 32-77 0-28-12-56-32-77-20-20-47-31-76-31l-162 0 0-37 162 0c38 0 75 16 102 43 27 27 42 64 42 102 0 39-15 76-42 103-27 27-64 42-102 42l-90 0 0 73-108-91 108-90z"/>
<glyph glyph-name="rotate-right" unicode="&#79;" d="M319 339l-90 0c-29 0-56-11-76-32-20-20-32-48-32-77 0-28 12-56 32-77 20-20 47-31 76-31l162 0 0-37-162 0c-38 0-75 16-102 43-27 27-42 64-42 102 0 39 15 76 42 103 27 27 64 42 102 42l90 0 0 73 108-91-108-90z"/>
<glyph glyph-name="close" unicode="&#80;" d="M256 286l106 106 30-30-106-106 106-106-30-30-106 106-106-106-30 30 106 106-106 106 30 30z"/>
<glyph glyph-name="caret-down" unicode="&#81;" d="M256 231l106 106 30-31-136-135-136 135 30 31z"/>
<glyph glyph-name="lock" unicode="&#82;" d="M128 341l0 22c0 34 13 66 37 90 24 24 57 38 91 38 34 0 67-14 91-38 24-24 37-56 37-90l0-22 43 0c5 0 11-2 15-6 4-4 6-9 6-15l0-256c0-6-2-11-6-15-4-4-10-6-15-6l-342 0c-5 0-11 2-15 6-4 4-6 9-6 15l0 256c0 6 2 11 6 15 4 4 10 6 15 6z m277-42l-298 0 0-214 298 0z m-170-123c-8 5-15 12-18 21-4 9-5 18-2 27 2 9 8 17 15 23 7 6 17 9 26 9 9 0 19-3 26-9 7-6 13-14 15-23 3-9 2-18-2-27-3-9-10-16-18-21l0-48-42 0z m-64 165l170 0 0 22c0 22-9 44-25 60-16 16-37 25-60 25-23 0-44-9-60-25-16-16-25-38-25-60z"/>
<glyph glyph-name="unlock" unicode="&#83;" d="M149 299l278 0c5 0 11-3 15-7 4-4 6-9 6-15l0-213c0-6-2-11-6-15-4-4-10-6-15-6l-342 0c-5 0-11 2-15 6-4 4-6 9-6 15l0 213c0 6 2 11 6 15 4 4 10 7 15 7l22 0 0 21c0 34 11 66 32 93 21 26 50 45 83 52 32 8 67 5 97-10 31-14 56-38 71-68l-39-19c-10 21-28 38-50 49-22 10-46 12-70 7-23-6-44-19-59-38-15-19-23-42-23-66z m-42-43l0-171 298 0 0 171z m106-64l86 0 0-43-86 0z"/>
<glyph glyph-name="bell" unicode="&#84;" d="M469 85l-426 0 0 43 21 0 0 149c0 106 86 192 192 192 106 0 192-86 192-192l0-149 21 0z m-362 43l298 0 0 149c0 83-67 150-149 150-82 0-149-67-149-150z m96-64l106 0c0-14-5-28-15-38-10-10-24-15-38-15-14 0-28 5-38 15-10 10-15 24-15 38z"/>
<glyph glyph-name="plus" unicode="&#85;" d="M235 277l0 128 42 0 0-128 128 0 0-42-128 0 0-128-42 0 0 128-128 0 0 42z"/>
<glyph glyph-name="user" unicode="&#86;" d="M427 43l-43 0 0 42c0 17-7 34-19 46-12 12-28 18-45 18l-128 0c-17 0-33-6-45-18-12-12-19-29-19-46l0-42-43 0 0 42c0 29 12 56 32 76 20 20 47 31 75 31l128 0c28 0 55-11 75-31 20-20 32-47 32-76z m-171 192c-17 0-33 3-49 9-16 7-30 16-42 28-11 12-21 26-27 42-7 15-10 32-10 49 0 16 3 33 10 49 6 15 16 29 27 41 12 12 26 21 42 28 16 6 32 10 49 10 34 0 67-14 91-38 24-24 37-56 37-90 0-34-13-67-37-91-24-24-57-37-91-37z m0 42c23 0 44 9 60 25 16 16 25 38 25 61 0 22-9 44-25 60-16 16-37 25-60 25-23 0-44-9-60-25-16-16-25-38-25-60 0-23 9-45 25-61 16-16 37-25 60-25z"/>
<glyph glyph-name="delete" unicode="&#102;" d="M149 427l0 42 214 0 0-42 106 0 0-43-42 0 0-320c0-6-3-11-7-15-4-4-9-6-15-6l-298 0c-6 0-11 2-15 6-4 4-7 9-7 15l0 320-42 0 0 43z m-21-43l0-299 256 0 0 299z m64-64l43 0 0-171-43 0z m85 0l43 0 0-171-43 0z"/>
<glyph glyph-name="image" unicode="&#111;" d="M107 275l42 43 118-117 74 74 64-64 0 194-298 0z m0-60l0-108 66 0 64 63-88 88z m126-108l172 0 0 44-64 64z m-148 341l342 0c5 0 11-2 15-6 4-4 6-10 6-15l0-342c0-5-2-11-6-15-4-4-10-6-15-6l-342 0c-5 0-11 2-15 6-4 4-6 10-6 15l0 342c0 5 2 11 6 15 4 4 10 6 15 6z m246-149c-9 0-17 3-23 9-6 6-9 14-9 23 0 8 3 16 9 22 6 6 14 10 23 10 8 0 16-4 22-10 6-6 10-14 10-22 0-9-4-17-10-23-6-6-14-9-22-9z"/>
<glyph glyph-name="image-add" unicode="&#87;" d="M448 192l0-64 64 0 0-43-64 0 0-64-43 0 0 64-64 0 0 43 64 0 0 64z m0 256c12 0 21-9 21-21l0-192-42 0 0 170-342 0 0-298 214 213 64-64 0-60-64 64-153-153 153 0 0-43-235 0c-6 0-11 2-15 6-4 4-6 10-6 15l0 342c0 5 2 11 6 15 4 4 9 6 15 6z m-277-85c11 0 22-5 30-13 8-8 12-19 12-30 0-11-4-22-12-30-8-8-19-13-30-13-12 0-22 5-31 13-8 8-12 19-12 30 0 11 4 22 12 30 9 8 19 13 31 13z"/>
<glyph glyph-name="bank-card" unicode="&#112;" d="M64 448l384 0c6 0 11-2 15-6 4-4 6-10 6-15l0-342c0-5-2-11-6-15-4-4-9-6-15-6l-384 0c-6 0-11 2-15 6-4 4-6 10-6 15l0 342c0 5 2 11 6 15 4 4 9 6 15 6z m363-171l-342 0 0-170 342 0z m0 43l0 85-342 0 0-85z m-128-128l85 0 0-43-85 0z"/>
<glyph glyph-name="comment" unicode="&#115;" d="M308 107l-52-75-52 75-140 0c-6 0-11 2-15 6-4 4-6 9-6 15l0 299c0 5 2 11 6 15 4 4 9 6 15 6l384 0c6 0 11-2 15-6 4-4 6-10 6-15l0-299c0-6-2-11-6-15-4-4-9-6-15-6z m-22 42l141 0 0 256-342 0 0-256 141 0 30-43z"/>
<glyph glyph-name="coupon" unicode="&#68;" d="M43 427c0 5 2 11 6 15 4 4 9 6 15 6l384 0c6 0 11-2 15-6 4-4 6-10 6-15l0-118c-14 0-27-5-37-15-10-10-16-24-16-38 0-14 6-28 16-38 10-10 23-15 37-15l0-118c0-5-2-11-6-15-4-4-9-6-15-6l-384 0c-6 0-11 2-15 6-4 4-6 10-6 15z m129-320c3 6 7 11 12 15 6 4 12 6 19 6 6 0 13-2 18-6 6-4 10-9 12-15l194 0 0 63c-16 8-30 20-39 35-10 16-15 33-15 51 0 18 5 35 15 51 9 15 23 27 39 35l0 63-194 0c-2-6-6-11-12-15-5-4-12-6-18-6-7 0-13 2-19 6-5 4-9 9-12 15l-87 0 0-298z m31 170c-9 0-17 4-23 10-6 6-9 14-9 22 0 9 3 17 9 23 6 6 14 9 23 9 8 0 16-3 22-9 6-6 10-14 10-23 0-8-4-16-10-22-6-6-14-10-22-10z m0-106c-9 0-17 3-23 9-6 6-9 14-9 23 0 8 3 16 9 22 6 6 14 10 23 10 8 0 16-4 22-10 6-6 10-14 10-22 0-9-4-17-10-23-6-6-14-9-22-9z"/>
<glyph glyph-name="money-transfer" unicode="&#88;" d="M85 405l0-298 342 0 0 298z m-21 43l384 0c6 0 11-2 15-6 4-4 6-10 6-15l0-342c0-5-2-11-6-15-4-4-9-6-15-6l-384 0c-6 0-11 2-15 6-4 4-6 10-6 15l0 342c0 5 2 11 6 15 4 4 9 6 15 6z m192-128l0 64 107-107-192 0 0 43z m-107-85l192 0 0-43-85 0 0-64z"/>
<glyph glyph-name="withdraw" unicode="&#89;" d="M107 320c5 0 11-2 15-6 4-4 6-10 6-15 34 0 66-12 92-32l47 0c28 0 54-13 71-32l67 0c21 0 40-6 57-17 17-11 31-26 40-44-51-67-132-110-225-110-59 0-110 13-150 35-2-4-4-7-8-10-4-2-8-4-12-4l-64 0c-6 0-11 3-15 7-4 4-7 9-7 15l0 192c0 5 3 11 7 15 4 4 9 6 15 6z m21-64l0-107 1-1c38-27 88-41 148-41 64 0 124 24 167 66l3 3-2 2c-10 8-23 13-35 14l-5 0-45 0c2-7 3-14 3-21l0-22-192 0 0 43 145 0-1 2c-4 8-11 16-18 21-8 5-17 8-27 9l-3 0-63 0c-10 10-22 18-35 24-13 5-27 8-41 8z m-43 21l-21 0 0-149 21 0z m299 128c17 0 33-6 45-18 12-12 19-29 19-46 0-17-7-33-19-45-12-12-28-19-45-19-17 0-33 7-45 19-12 12-19 28-19 45 0 17 7 34 19 46 12 12 28 18 45 18z m0-42c-6 0-11-3-15-7-4-4-6-9-6-15 0-5 2-11 6-15 4-4 9-6 15-6 6 0 11 2 15 6 4 4 6 10 6 15 0 6-2 11-6 15-4 4-9 7-15 7z m-149 106c17 0 33-6 45-18 12-12 19-29 19-46 0-17-7-33-19-45-12-12-28-19-45-19-17 0-34 7-46 19-12 12-18 28-18 45 0 17 6 34 18 46 12 12 29 18 46 18z m0-42c-6 0-11-3-15-7-4-4-7-9-7-15 0-5 3-11 7-15 4-4 9-6 15-6 5 0 11 2 15 6 4 4 6 10 6 15 0 6-2 11-6 15-4 4-10 7-15 7z"/>
<glyph glyph-name="wallet" unicode="&#90;" d="M469 363l22 0 0-214-22 0 0-64c0-5-2-11-6-15-4-4-9-6-15-6l-384 0c-6 0-11 2-15 6-4 4-6 10-6 15l0 342c0 5 2 11 6 15 4 4 9 6 15 6l384 0c6 0 11-2 15-6 4-4 6-10 6-15z m-42-214l-128 0c-29 0-56 12-76 32-20 20-31 47-31 75 0 28 11 55 31 75 20 20 47 32 76 32l128 0 0 42-342 0 0-298 342 0z m21 43l0 128-149 0c-17 0-34-7-46-19-12-12-18-28-18-45 0-17 6-33 18-45 12-12 29-19 46-19z m-149 85l64 0 0-42-64 0z"/>
<glyph glyph-name="voucher" unicode="&#48;" d="M309 469c13 0 25-3 36-9 11-6 21-15 27-25 7-11 11-23 12-36 1-12-2-25-7-36l71 0c6 0 11-3 15-7 4-4 6-9 6-15l0-85c0-6-2-11-6-15-4-4-9-6-15-6l-21 0 0-171c0-6-3-11-7-15-4-4-9-6-15-6l-298 0c-6 0-11 2-15 6-4 4-7 9-7 15l0 171-21 0c-6 0-11 2-15 6-4 4-6 9-6 15l0 85c0 6 2 11 6 15 4 4 9 7 15 7l71 0c-7 16-9 34-5 51 5 17 15 32 30 42 14 10 32 15 50 13 17-2 34-9 46-22 7 7 15 13 24 17 10 3 19 5 29 5z m75-234l-256 0 0-150 256 0z m43 85l-342 0 0-43 342 0z m-224 107c-9 0-16-4-22-9-6-6-10-14-10-22-1-8 2-16 7-22 6-6 13-10 22-11l3 0 32 0 0 32c0 8-3 15-9 21-5 6-12 10-20 11z m106 0l-3 0c-7-1-14-4-19-10-6-5-9-12-10-19l0-3 0-32 32 0 3 0c8 1 16 4 21 10 5 6 8 14 8 22 0 8-3 15-8 21-5 6-13 10-21 11z"/>
<glyph glyph-name="ticket" unicode="&#49;" d="M448 448c6 0 11-2 15-6 4-4 6-10 6-15l0-118c-14 0-27-5-37-15-10-10-16-24-16-38 0-14 6-28 16-38 10-10 23-15 37-15l0-118c0-5-2-11-6-15-4-4-9-6-15-6l-384 0c-6 0-11 2-15 6-4 4-6 10-6 15l0 118c14 0 27 5 37 15 10 10 16 24 16 38 0 14-6 28-16 38-10 10-23 15-37 15l0 118c0 5 2 11 6 15 4 4 9 6 15 6z m-21-43l-342 0 0-63 4-2c14-8 26-19 35-33 9-14 14-30 15-47l0-4c0-17-5-34-14-49-9-15-21-27-36-35l-4-2 0-63 342 0 0 63-4 2c-14 8-26 19-35 33-9 14-14 30-15 46l0 5c0 36 21 68 50 84l4 2z m-86-85l0-128-170 0 0 128z"/>
<glyph glyph-name="shopping-bag" unicode="&#50;" d="M139 469l234 0c4 0 7 0 10-2 3-1 5-4 7-6l58-77 0-320c0-6-2-11-6-15-4-4-10-6-15-6l-342 0c-5 0-11 2-15 6-4 4-6 9-6 15l0 320 58 77c2 2 4 5 7 6 3 2 6 2 10 2z m266-128l-298 0 0-256 298 0z m-10 43l-32 43-214 0-32-43z m-203-85l0-43c0-17 7-33 19-45 12-12 28-19 45-19 17 0 33 7 45 19 12 12 19 28 19 45l0 43 43 0 0-43c0-28-12-55-32-75-20-20-47-32-75-32-28 0-55 12-75 32-20 20-32 47-32 75l0 43z"/>
<glyph glyph-name="safe" unicode="&#51;" d="M427 78l0-35-43 0 0 28-158-26c-2-1-3 0-5 0-1 0-3 1-4 2-1 1-2 2-3 4 0 1-1 3-1 4l0 30-85 0 0-42-43 0 0 42-21 0c-6 0-11 3-15 7-4 4-6 9-6 15l0 320c0 5 2 11 6 15 4 4 9 6 15 6l149 0 0 30c0 2 1 3 1 5 1 1 2 2 3 3 1 1 3 2 4 2 2 1 3 1 5 1l226-38c4-1 9-3 12-7 4-4 5-9 5-14l0-46 22 0 0-43-22 0 0-149 22 0 0-43-22 0 0-46c0-5-1-10-5-13-3-4-8-7-12-8z m-342 327l0-277 128 0 0 277z m171-312l171 28 0 291-171 28z m96 120c-18 0-32 24-32 54 0 29 14 53 32 53 18 0 32-24 32-53 0-30-14-54-32-54z"/>
<glyph glyph-name="price-tag" unicode="&#52;" d="M233 467l211-30 30-211-196-196c-4-4-10-7-15-7-6 0-11 3-15 7l-212 211c-4 4-6 9-6 15 0 6 2 11 6 15z m15-45l-166-166 181-181 166 166-23 158z m45-136c-8 8-13 19-13 30 0 6 1 12 4 17 2 5 5 10 9 14 4 3 9 7 14 9 5 2 10 3 16 3 11 0 22-4 30-12 8-8 13-19 13-31 0-11-5-22-13-30-8-8-19-12-30-12-11 0-22 4-30 12z"/>
<glyph glyph-name="ellipsis-horizontal" unicode="&#66;" d="M107 299c-24 0-43-20-43-43 0-23 19-43 43-43 23 0 42 20 42 43 0 23-19 43-42 43z m298 0c-23 0-42-20-42-43 0-23 19-43 42-43 24 0 43 20 43 43 0 23-19 43-43 43z m-149 0c-23 0-43-20-43-43 0-23 20-43 43-43 23 0 43 20 43 43 0 23-20 43-43 43z"/>
<glyph glyph-name="ellipsis-vertical" unicode="&#53;" d="M256 448c-23 0-43-19-43-43 0-23 20-42 43-42 23 0 43 19 43 42 0 24-20 43-43 43z m0-299c-23 0-43-19-43-42 0-24 20-43 43-43 23 0 43 19 43 43 0 23-20 42-43 42z m0 150c-23 0-43-20-43-43 0-23 20-43 43-43 23 0 43 20 43 43 0 23-20 43-43 43z"/>
<glyph glyph-name="external-link" unicode="&#54;" d="M213 448l0-43-106 0 0-298 298 0 0 106 43 0 0-128c0-5-2-11-6-15-4-4-10-6-15-6l-342 0c-5 0-11 2-15 6-4 4-6 10-6 15l0 342c0 5 2 11 6 15 4 4 10 6 15 6z m162-43l-98 0 0 43 171 0 0-171-43 0 0 98-149-149-30 30z"/>
<glyph glyph-name="settings" unicode="&#55;" d="M43 256c0 18 2 36 6 53 12 0 24 2 34 8 11 6 19 14 25 24 6 11 9 22 9 34-1 12-4 23-11 33 26 26 58 44 93 54 5-11 13-20 24-26 10-6 21-9 33-9 12 0 23 3 33 9 11 6 19 15 24 26 35-10 67-28 93-54-7-10-10-21-11-33 0-12 3-23 9-34 6-10 14-18 25-24 10-6 22-8 34-8 4-17 6-35 6-53 0-18-2-36-6-53-12 0-24-2-34-8-11-6-19-14-25-24-6-11-9-22-9-34 1-12 4-23 11-33-26-26-58-44-93-54-5 11-13 20-24 26-10 6-21 9-33 9-12 0-23-3-33-9-11-6-19-15-24-26-35 10-67 28-93 54 7 10 10 21 11 33 0 12-3 23-9 34-6 10-14 18-25 24-10 6-22 8-34 8-4 17-6 35-6 53z m102-64c14-23 17-50 12-75 9-6 18-12 28-16 19 17 45 27 71 27 27 0 52-10 71-27 10 4 19 10 28 16-6 26-1 52 12 75 13 23 34 40 59 48 1 11 1 21 0 32-25 8-46 25-59 48-13 23-18 49-12 75-9 6-18 12-28 16-19-17-45-27-71-27-26 0-52 10-71 27-10-4-19-10-28-16 6-26 1-52-12-75-13-23-34-40-59-48-1-11-1-21 0-32 25-8 46-25 59-48z m111 0c-17 0-33 7-45 19-12 12-19 28-19 45 0 17 7 33 19 45 12 12 28 19 45 19 17 0 33-7 45-19 12-12 19-28 19-45 0-17-7-33-19-45-12-12-28-19-45-19z m0 43c6 0 11 2 15 6 4 4 6 9 6 15 0 6-2 11-6 15-4 4-9 6-15 6-6 0-11-2-15-6-4-4-6-9-6-15 0-6 2-11 6-15 4-4 9-6 15-6z"/>
<glyph glyph-name="copy" unicode="&#56;" d="M149 363l0 85c0 6 3 11 7 15 4 4 9 6 15 6l277 0c6 0 11-2 15-6 4-4 6-9 6-15l0-277c0-6-2-11-6-15-4-4-9-7-15-7l-85 0 0-85c0-12-10-21-22-21l-277 0c-3 0-5 0-8 1-3 1-5 3-7 5-2 2-4 4-5 7-1 3-1 5-1 8l0 277c0 12 9 22 21 22z m43 0l149 0c12 0 22-10 22-22l0-149 64 0 0 235-235 0z m-107-43l0-235 235 0 0 235z"/>
<glyph glyph-name="copyright" unicode="&#57;" d="M256 469c118 0 213-95 213-213 0-118-95-213-213-213-118 0-213 95-213 213 0 118 95 213 213 213z m0-42c-94 0-171-77-171-171 0-94 77-171 171-171 94 0 171 77 171 171 0 94-77 171-171 171z m0-64c39 0 73-21 91-52l-36-22c-6 10-14 17-24 23-10 5-21 8-32 8-11 0-22-3-32-9-9-6-17-14-23-23-5-10-8-21-8-32 0-12 3-23 9-32 5-10 13-18 23-23 10-6 21-9 32-9 11 0 22 3 32 8 9 6 17 14 23 23l36-22c-12-20-30-35-51-44-22-9-46-10-68-4-23 6-43 20-57 38-14 19-22 42-22 65 0 59 48 107 107 107z"/>
<glyph glyph-name="send" unicode="&#33;" d="M41 312c-11 4-11 11 1 15l407 136c11 3 18-3 15-14l-117-407c-3-12-10-12-15-2l-97 195z m104 4l121-48 64-129 76 264-261-87z"/>
<glyph glyph-name="mail-add" unicode="&#34;" d="M469 235l-42 0 0 123-169-152-173 152 0-251 214 0 0-43-235 0c-6 0-11 2-15 6-4 4-6 10-6 15l0 342c0 5 2 11 6 15 4 4 9 6 15 6l384 0c6 0 11-2 15-6 4-4 6-10 6-15z m-373 170l161-142 159 142z m352-277l64 0 0-43-64 0 0-64-43 0 0 64-64 0 0 43 64 0 0 64 43 0z"/>
<glyph glyph-name="mail" unicode="&#35;" d="M64 448l384 0c6 0 11-2 15-6 4-4 6-10 6-15l0-342c0-5-2-11-6-15-4-4-9-6-15-6l-384 0c-6 0-11 2-15 6-4 4-6 10-6 15l0 342c0 5 2 11 6 15 4 4 9 6 15 6z m363-90l-169-152-173 152 0-251 342 0z m-331 47l161-142 159 142z"/>
<glyph glyph-name="mail-send" unicode="&#36;" d="M469 85c0-5-2-11-6-15-4-4-9-6-15-6l-384 0c-6 0-11 2-15 6-4 4-6 10-6 15l0 22 384 0 0 249-171-153-213 192 0 32c0 5 2 11 6 15 4 4 9 6 15 6l384 0c6 0 11-2 15-6 4-4 6-10 6-15z m-374 320l161-145 161 145z m-95-213l171 0 0-43-171 0z m0 107l107 0 0-43-107 0z"/>
<glyph glyph-name="at" unicode="&#37;" d="M427 256c0 38-13 75-36 105-24 30-57 51-94 61-36 9-75 5-110-10-35-15-64-42-81-76-18-33-25-72-18-109 6-38 25-72 53-97 28-26 64-41 102-44 38-3 76 7 108 28l23-36c-35-23-76-35-118-35-118 0-213 95-213 213 0 118 95 213 213 213 118 0 213-95 213-213l0-32c0-16-5-32-14-44-10-13-23-23-38-27-16-5-32-5-47 1-15 5-28 15-37 28-14-15-33-25-53-30-20-5-40-3-60 4-19 6-36 19-49 35-12 16-20 36-21 56-2 21 2 41 12 59 10 19 25 33 42 43 18 10 39 15 59 13 21-1 41-8 57-21l43 0 0-117c0-8 3-17 9-23 6-6 14-9 23-9 8 0 16 3 22 9 6 6 10 15 10 23z m-171 64c-17 0-33-7-45-19-12-12-19-28-19-45 0-17 7-33 19-45 12-12 28-19 45-19 17 0 33 7 45 19 12 12 19 28 19 45 0 17-7 33-19 45-12 12-28 19-45 19z"/>
<glyph glyph-name="calendar" unicode="&#38;" d="M363 448l85 0c6 0 11-2 15-6 4-4 6-10 6-15l0-342c0-5-2-11-6-15-4-4-9-6-15-6l-384 0c-6 0-11 2-15 6-4 4-6 10-6 15l0 342c0 5 2 11 6 15 4 4 9 6 15 6l85 0 0 43 43 0 0-43 128 0 0 43 43 0z m-43-43l-128 0 0-42-43 0 0 42-64 0 0-85 342 0 0 85-64 0 0-42-43 0z m107-128l-342 0 0-170 342 0z m-299-64l43 0 0-42-43 0z m85 0l171 0 0-42-171 0z"/>
<glyph glyph-name="menu" unicode="&#104;" d="M64 427l384 0 0-43-384 0z m0-150l384 0 0-42-384 0z m0-149l384 0 0-43-384 0z"/>
<glyph glyph-name="caret-left" unicode="&#101;" d="M231 256l106-106-31-30-135 136 135 136 31-30z"/>
<glyph glyph-name="eye" unicode="&#110;" d="M256 448c115 0 211-83 231-192-20-109-116-192-231-192-115 0-211 83-231 192 20 109 116 192 231 192z m0-341c44 0 86 14 120 42 34 27 58 65 67 107-9 42-33 80-67 107-34 27-77 42-120 42-43 0-86-15-120-42-34-27-58-65-67-107 9-42 33-80 67-107 34-28 76-42 120-42z m0 53c-25 0-50 10-68 28-18 18-28 43-28 68 0 25 10 50 28 68 18 18 43 28 68 28 25 0 50-10 68-28 18-18 28-43 28-68 0-25-10-50-28-68-18-18-43-28-68-28z m0 43c14 0 28 5 38 15 10 10 15 24 15 38 0 14-5 28-15 38-10 10-24 15-38 15-14 0-28-5-38-15-10-10-15-24-15-38 0-14 5-28 15-38 10-10 24-15 38-15z"/>
<glyph glyph-name="check" unicode="&#41;" d="M213 188l196 196 31-30-227-226-135 136 30 30z"/>
<glyph glyph-name="caret-up" unicode="&#42;" d="M256 281l-106-106-30 31 136 135 136-135-30-31z"/>
<glyph glyph-name="eye-off" unicode="&#43;" d="M381 100c-37-23-81-36-125-36-115 0-211 83-231 192 9 50 34 95 71 129l-66 67 30 30 422-422-30-30-71 70z m-254 255c-29-26-50-61-58-99 6-29 20-56 39-79 19-23 43-42 70-54 28-12 57-18 87-16 30 1 59 10 85 24l-43 44c-18-12-40-17-62-14-21 2-42 12-57 27-15 15-25 36-27 57-3 22 2 44 14 62z m149-149l-70 69c-3-9-4-20-2-30 2-10 7-19 14-27 8-7 17-12 27-14 10-2 21-1 30 2z m168-48l-31 31c15 20 25 43 30 67-6 25-16 49-32 70-15 21-35 39-57 52-22 14-47 22-73 26-26 3-52 1-77-6l-34 34c27 10 56 16 86 16 115 0 211-83 231-192-7-36-21-69-43-98z m-194 194c14 1 27-1 40-6 13-5 24-12 34-22 10-10 17-21 22-34 5-13 7-26 6-40l-102 102z"/>
<glyph glyph-name="link" unicode="&#40;" d="M392 181l-30 30 30 30c10 10 18 22 23 35 6 13 8 26 8 40 0 15-2 28-8 41-5 13-13 25-23 35-10 10-22 18-35 23-13 6-27 8-41 8-14 0-28-2-40-8-13-5-25-13-35-23l-30-30-30 30 30 30c28 28 66 44 105 44 40 0 78-16 106-44 28-28 44-66 44-106 0-39-16-77-44-105l-30-30z m-61-61l-30-30c-28-28-66-44-105-44-40 0-78 16-106 44-28 28-44 66-44 106 0 39 16 77 44 105l30 30 30-30-30-30c-10-10-18-22-23-35-6-13-8-26-8-40 0-15 2-28 8-41 5-13 13-25 23-35 10-10 22-18 35-23 13-6 27-8 41-8 14 0 28 2 40 8 13 5 25 13 35 23l30 30 30-30z m-15 227l31-31-151-150-31 30 151 150z"/>
<glyph glyph-name="phone" unicode="&#45;" d="M200 284c20-35 49-64 84-84l19 26c3 4 7 7 13 9 5 1 10 0 15-2 30-17 63-27 97-30 6 0 11-2 14-6 4-4 6-9 6-15l0-95c0-5-2-10-5-14-4-4-9-7-14-7-11-1-23-2-34-2-183 0-331 148-331 331 0 11 1 23 2 34 0 5 3 10 7 14 4 3 9 5 14 5l95 0c6 0 11-2 15-6 4-3 6-8 6-14 3-34 13-67 30-97 2-5 3-10 2-15-2-6-5-10-9-13z m-54 14l41 29c-12 25-20 51-24 78l-56 0c0-3 0-7 0-10 0-159 129-288 288-288 3 0 7 0 10 0l0 56c-27 4-53 12-78 24l-29-41c-12 5-23 10-34 16l-1 1c-42 24-76 58-100 100l-1 1c-6 11-11 22-16 34z"/>
<glyph glyph-name="whatsapp" unicode="&#46;" d="M155 117l15-9c26-15 56-23 86-23 34 0 67 10 95 29 28 19 50 46 63 77 13 31 16 65 9 98-6 33-22 64-46 88-24 24-55 40-88 46-33 7-67 4-98-9-31-13-58-35-77-63-19-28-29-61-29-95 0-31 8-60 23-86l9-15-13-52z m-112-74l29 106c-19 32-29 69-29 107 0 118 95 213 213 213 118 0 213-95 213-213 0-118-95-213-213-213-38 0-75 10-107 29z m136 313c3 0 6 0 9 0 1 0 2 0 3 0 3-1 7-3 8-5 7-15 13-29 19-44 1-3 0-7-2-11-2-3-4-6-6-8-2-3-7-9-7-9 0 0-2-3-2-6 1-1 2-3 3-4l1-2c5-9 13-19 22-27 2-3 5-5 7-8 10-8 22-16 34-21l0 0c2-1 3-1 5-2 2-1 3-1 4-2 2 0 3 0 5 0 1 1 2 2 3 3 16 19 17 20 17 20l0 0c1 1 3 2 4 2 1 1 3 1 4 1 2 0 3-1 4-1 11-5 30-14 30-14l12-5c2-1 4-3 4-6 1-1 1-3 0-8-1-5-2-12-4-15-1-3-2-5-4-7-2-2-5-4-7-6-1-1-2-1-3-2-3-2-5-3-8-5-6-2-12-4-18-4-4-1-8-1-12-1 0 0-12 2-12 2-30 8-58 23-82 44-5 4-9 9-14 13-19 19-33 39-42 59-4 9-7 19-7 30 0 13 4 25 12 36 2 2 3 4 6 6 3 3 4 4 6 5 3 1 5 2 8 2z"/>
<glyph glyph-name="users" unicode="&#107;" d="M149 320c14 0 28 6 38 16 10 10 16 23 16 37 0 14-6 28-16 38-10 10-24 16-38 16-14 0-27-6-37-16-10-10-16-24-16-38 0-14 6-27 16-37 10-10 23-16 37-16z m0-43c-12 0-25 3-36 8-12 4-23 12-32 20-8 9-16 20-20 32-5 11-8 24-8 36 0 13 3 25 8 37 4 12 12 22 20 31 9 9 20 16 32 21 11 5 24 7 36 7 26 0 50-10 68-28 18-18 28-42 28-68 0-25-10-50-28-68-18-18-42-28-68-28z m224-42c12 0 23 4 31 12 8 8 12 19 12 30 0 12-4 22-12 31-8 8-19 12-31 12-11 0-22-4-30-12-8-9-12-19-12-31 0-11 4-22 12-30 8-8 19-12 30-12z m0-43c-22 0-44 9-60 25-16 16-25 38-25 60 0 23 9 45 25 61 16 16 38 25 60 25 23 0 45-9 61-25 16-16 25-38 25-61 0-22-9-44-25-60-16-16-38-25-61-25z m54-128l0 11c0 14-6 27-16 37-10 10-24 16-38 16-14 0-27-6-37-16-10-10-16-23-16-37l0-11-43 0 0 11c0 12 3 25 8 36 4 12 12 23 20 32 9 8 20 16 32 20 11 5 24 8 36 8 13 0 25-3 37-8 12-4 22-12 31-20 9-9 16-20 21-32 5-11 7-24 7-36l0-11z m-214 0l0 85c0 17-6 34-18 46-12 12-29 18-46 18-17 0-33-6-45-18-12-12-19-29-19-46l0-85-42 0 0 85c0 29 11 56 31 76 20 20 47 31 75 31 29 0 56-11 76-31 20-20 31-47 31-76l0-85z"/>
<glyph glyph-name="search" unicode="&#100;" d="M235 469c106 0 192-86 192-192 0-106-86-192-192-192-106 0-192 86-192 192 0 106 86 192 192 192z m0-341c82 0 149 67 149 149 0 83-67 150-149 150-83 0-150-67-150-150 0-82 67-149 150-149z m181-2l60-60-30-30-60 60z"/>
<glyph glyph-name="shield-check" unicode="&#118;" d="M256 491l175-39c10-2 17-11 17-21l0-213c0-43-21-83-57-107l-135-90-135 90c-36 24-57 64-57 107l0 213c0 10 7 19 17 21z m0-44l-149-33 0-196c0-29 14-55 38-71l111-74 111 74c24 16 38 42 38 71l0 196-149 33z m95-110l30-31-136-135-90 90 30 30 60-60 106 106z"/>
<glyph glyph-name="shield-keyhole" unicode="&#47;" d="M256 491l175-39c5-1 9-4 12-8 3-4 5-8 5-13l0-213c0-21-5-42-15-61-10-18-24-34-42-46l-135-90-135 90c-18 12-32 28-42 46-10 19-15 40-15 61l0 213c0 5 2 9 5 13 3 4 7 7 12 8z m0-44l-149-33 0-196c0-14 3-28 10-40 6-13 16-23 28-31l111-74 111 74c12 8 22 18 28 31 7 12 10 26 10 40l0 196-149 33z m0-84c9 0 19-3 26-9 7-6 13-14 15-23 3-9 2-19-2-27-3-9-10-16-18-21l0-91-42 0 0 91c-8 5-15 12-18 21-4 8-5 18-2 27 2 9 8 17 15 23 7 6 17 9 26 9z"/>
<glyph glyph-name="home" unicode="&#58;" d="M277 107l128 0 0 192-149 116-149-116 0-192 128 0 0 128 42 0z m171-22c0-5-2-11-6-15-4-4-10-6-15-6l-342 0c-5 0-11 2-15 6-4 4-6 10-6 15l0 225c0 3 1 6 2 9 2 3 4 5 6 7l171 133c4 3 8 5 13 5 5 0 9-2 13-5l171-133c2-2 4-4 6-7 1-3 2-6 2-9z"/>
<glyph glyph-name="braces" unicode="&#59;" d="M85 128l0 79c0 8-3 17-9 23-6 6-14 9-23 9l-10 0 0 34 10 0c5 0 9 1 13 3 3 1 7 3 10 6 3 3 5 7 7 11 2 4 2 8 2 12l0 79c0 17 7 33 19 45 12 12 28 19 45 19l22 0 0-43-22 0c-5 0-11-2-15-6-4-4-6-9-6-15l0-87c0-9-3-18-8-25-5-8-13-13-21-16 8-3 16-8 21-16 5-7 8-16 8-25l0-87c0-6 2-11 6-15 4-4 10-6 15-6l22 0 0-43-22 0c-17 0-33 7-45 19-12 12-19 28-19 45z m342 79l0-79c0-17-7-33-19-45-12-12-28-19-45-19l-22 0 0 43 22 0c5 0 11 2 15 6 4 4 6 9 6 15l0 87c0 9 3 18 8 25 5 8 13 13 21 16-8 3-16 8-21 16-5 7-8 16-8 25l0 87c0 6-2 11-6 15-4 4-10 6-15 6l-22 0 0 43 22 0c17 0 33-7 45-19 12-12 19-28 19-45l0-79c0-8 3-17 9-23 6-6 14-9 23-9l10 0 0-34-10 0c-9 0-17-3-23-9-6-6-9-15-9-23z"/>
<glyph glyph-name="alert" unicode="&#60;" d="M274 448l204-352c2-3 3-7 3-11 0-3-1-7-3-10-2-4-5-6-8-8-3-2-7-3-11-3l-406 0c-4 0-8 1-11 3-3 2-6 4-8 8-2 3-3 7-3 10 0 4 1 8 3 11l204 352c1 3 4 6 7 8 4 2 7 3 11 3 4 0 7-1 11-3 3-2 6-5 7-8z m-184-341l332 0-166 288z m145 64l42 0 0-43-42 0z m0 149l42 0 0-107-42 0z"/>
<glyph glyph-name="global" unicode="&#61;" d="M256 43c-118 0-213 95-213 213 0 118 95 213 213 213 118 0 213-95 213-213 0-118-95-213-213-213z m-49 49c-21 45-33 93-36 143l-84 0c4-33 17-64 39-89 21-26 49-44 81-54z m7 143c3-52 18-101 42-144 25 44 39 93 42 144z m211 0l-84 0c-3-50-15-98-36-143 32 10 60 28 81 54 22 25 35 56 39 89z m-338 42l84 0c3 50 15 98 36 143-32-10-60-28-81-54-22-25-35-56-39-89z m127 0l84 0c-3 51-17 100-42 144-25-44-39-93-42-144z m91 143c21-45 33-93 36-143l84 0c-4 33-17 64-39 89-21 26-49 44-81 54z"/>
<glyph glyph-name="flag" unicode="&#62;" d="M85 149l0-106-42 0 0 405 408 0c2 0 4 0 5-1 2-1 3-3 4-4 1-2 2-4 2-6 0-1-1-3-2-5l-76-133 76-134c1-1 2-3 2-5 0-2-1-4-2-5-1-2-2-3-4-4-1-1-3-2-5-2z m0 256l0-213 311 0-61 107 61 106z"/>
<glyph glyph-name="filter" unicode="&#63;" d="M213 128l86 0 0 43-86 0z m-149 256l0-43 384 0 0 43z m64-149l256 0 0 42-256 0z"/>
<glyph glyph-name="locations" unicode="&#64;" d="M243 290l-83-83-83 83c-16 17-28 38-32 60-5 23-2 47 7 68 8 22 24 40 43 53 19 13 42 20 65 20 23 0 46-7 65-20 19-13 35-31 43-53 9-21 12-45 7-68-4-22-16-43-32-60z m-83 41c11 0 22 4 30 12 8 8 13 19 13 30 0 12-5 22-13 31-8 8-19 12-30 12-11 0-22-4-30-12-8-9-13-19-13-31 0-11 5-22 13-30 8-8 19-12 30-12z m275-233l-83-83-83 83c-16 17-28 38-32 60-5 23-2 47 7 68 8 22 24 40 43 53 19 13 42 20 65 20 23 0 46-7 65-20 19-13 35-31 43-53 9-21 12-45 7-68-4-22-16-43-32-60z m-83 41c11 0 22 4 30 12 8 8 13 19 13 30 0 12-5 22-13 31-8 8-19 12-30 12-11 0-22-4-30-12-8-9-13-19-13-31 0-11 5-22 13-30 8-8 19-12 30-12z"/>
<glyph glyph-name="plux-box" unicode="&#91;" d="M85 448l342 0c5 0 11-2 15-6 4-4 6-10 6-15l0-342c0-5-2-11-6-15-4-4-10-6-15-6l-342 0c-5 0-11 2-15 6-4 4-6 10-6 15l0 342c0 5 2 11 6 15 4 4 10 6 15 6z m22-43l0-298 298 0 0 298z m128-128l0 86 42 0 0-86 86 0 0-42-86 0 0-86-42 0 0 86-86 0 0 42z"/>
<glyph glyph-name="plus-circle" unicode="&#93;" d="M235 277l0 86 42 0 0-86 86 0 0-42-86 0 0-86-42 0 0 86-86 0 0 42z m21-234c-118 0-213 95-213 213 0 118 95 213 213 213 118 0 213-95 213-213 0-118-95-213-213-213z m0 42c45 0 89 18 121 50 32 32 50 76 50 121 0 45-18 89-50 121-32 32-76 50-121 50-45 0-89-18-121-50-32-32-50-76-50-121 0-45 18-89 50-121 32-32 76-50 121-50z"/>
<glyph glyph-name="star" unicode="&#94;" d="M256 122l-150-84 33 169-126 117 171 21 72 156 72-156 171-21-126-117 33-169z m0 49l91-50-21 101 77 71-104 12-43 94-43-94-104-12 77-71-21-101z"/>
<glyph glyph-name="instagram" unicode="&#97;" d="M256 320c-17 0-33-7-45-19-12-12-19-28-19-45 0-17 7-33 19-45 12-12 28-19 45-19 17 0 33 7 45 19 12 12 19 28 19 45 0 17-7 33-19 45-12 12-28 19-45 19z m0 43c28 0 55-12 75-32 20-20 32-47 32-75 0-28-12-55-32-75-20-20-47-32-75-32-28 0-55 12-75 32-20 20-32 47-32 75 0 28 12 55 32 75 20 20 47 32 75 32z m139 5c0-7-3-14-8-19-5-5-12-8-19-8-7 0-14 3-19 8-5 5-8 12-8 19 0 7 3 14 8 19 5 5 12 8 19 8 7 0 14-3 19-8 5-5 8-12 8-19z m-139 59c-53 0-61 0-86-2-17 0-28-3-38-7-10-3-16-8-23-15-7-6-12-14-15-23-4-10-7-21-7-38-2-24-2-32-2-86 0-53 0-61 2-86 0-17 3-28 7-38 3-10 8-16 15-23 7-7 13-12 23-15 10-4 21-7 38-7 24-2 32-2 86-2 53 0 61 0 86 2 17 0 28 3 38 7 10 3 16 8 23 15 8 7 12 13 15 23 4 10 7 21 7 38 2 24 2 32 2 86 0 53 0 61-2 86 0 17-3 28-7 38-3 9-8 17-15 23-6 7-14 12-23 15-10 4-21 7-38 7-24 2-32 2-86 2z m0 42c58 0 65 0 88-1 23-1 38-5 52-10 14-5 26-13 38-24 10-11 19-24 24-38 5-14 9-29 10-52 1-23 1-30 1-88 0-58 0-65-1-88-1-23-5-38-10-52-5-14-14-27-24-38-11-10-24-19-38-24-14-5-29-9-52-10-23-1-30-1-88-1-58 0-65 0-88 1-23 1-38 5-52 10-14 5-27 14-38 24-10 11-19 24-24 38-5 14-9 29-10 52-1 23-1 30-1 88 0 58 0 65 1 88 1 23 5 38 10 52 5 14 14 27 24 38 11 10 24 19 38 24 14 5 29 9 52 10 23 1 30 1 88 1z"/>
<glyph glyph-name="messenger" unicode="&#105;" d="M166 102c12 5 26 6 39 3 17-5 34-7 51-7 98 0 171 70 171 164 0 95-73 165-171 165-98 0-171-70-171-165 0-48 19-91 53-121 6-5 11-12 14-19 4-7 6-15 6-23z m90 367c120 0 213-88 213-207 0-118-93-207-213-207-21 0-42 3-62 9-4 1-8 0-11-1l-42-19c-3-1-6-1-9-1-2 0-5 1-7 2-3 2-5 4-6 6-2 3-2 5-2 8l-2 38c0 3 0 5-1 7-1 2-3 4-4 5-42 37-67 91-67 153 0 119 93 207 213 207z m-128-267l63 99c2 4 5 7 9 10 3 2 7 4 12 5 4 1 9 0 13-1 4-1 8-3 12-5l50-38c2-1 5-2 7-2 3 0 6 1 8 2l67 52c9 6 21-4 15-14l-63-99c-2-4-5-7-9-10-3-2-7-4-12-5-4-1-9 0-13 1-4 1-8 2-12 5l-50 37c-2 2-5 3-7 3-3 0-6-1-8-3l-67-51c-9-6-21 4-15 14z"/>
<glyph glyph-name="time" unicode="&#113;" d="M256 43c-118 0-213 95-213 213 0 118 95 213 213 213 118 0 213-95 213-213 0-118-95-213-213-213z m0 42c45 0 89 18 121 50 32 32 50 76 50 121 0 45-18 89-50 121-32 32-76 50-121 50-45 0-89-18-121-50-32-32-50-76-50-121 0-45 18-89 50-121 32-32 76-50 121-50z m21 171l86 0 0-43-128 0 0 150 42 0z"/>
<glyph glyph-name="windows" unicode="&#123;" d="M448 459l0-406-384 43 0 320z m-43-224l-149 0 0-117 149-17z m-298-101l106-12 0 113-106 0z m298 143l0 134-149-17 0-117 149 0z m-192 113l-106-12 0-101 106 0 0 113z"/>
<glyph glyph-name="google-play" unicode="&#92;" d="M85 475c4 0 8-1 11-3l341-198c4-1 6-4 8-7 2-4 3-7 3-11 0-4-1-7-3-11-2-3-4-6-8-7l-341-198c-3-2-7-3-11-3-3 0-7 1-10 3-4 2-6 4-8 8-2 3-3 7-3 10l0 396c0 5 2 11 6 15 4 4 10 6 15 6z m177-249l-96-96 122 70-26 26z m-155 155l0-250 125 125z m219-91l-34-34 34-34 58 34-58 34z m-160 92l96-96 26 26z"/>
<glyph glyph-name="google-drive" unicode="&#57344;" d="M194 381l-102-177 37-65 102 177z m-28-263l204 0 38 65-204 0-38-65z m242 107l-102 177-75 0 102-177 75 0z m-226 220l148 0 139-241-74-129-278 0-74 129z m74-172l-28-48 56 0z"/>
<glyph glyph-name="google" unicode="&#57345;" d="M65 352c18 35 45 65 79 86 34 20 72 31 112 31 57 0 106-21 143-55l-61-61c-23 21-51 31-82 31-56 0-103-37-119-87-5-13-7-27-7-41 0-14 2-28 7-41 16-50 63-87 119-87 29 0 53 7 72 20 11 7 21 17 28 28 7 11 12 23 15 36l-115 0 0 83 201 0c2-14 4-29 4-44 0-65-23-120-64-157-35-32-83-51-141-51-28 0-56 5-82 16-26 11-49 26-69 46-20 20-35 43-46 69-11 26-16 54-16 82 0 34 8 67 22 96z"/>
<glyph glyph-name="paypal" unicode="&#57348;" d="M181 71l33 0 12 72c2 14 9 27 20 36 11 10 25 15 39 15l11 0c57 0 86 21 97 74 4 23 2 37-4 45-26-65-81-89-149-89l-18 0c-9 0-17-4-19-12z m-105 6c-2 0-4 1-5 1-2 1-3 2-4 3-1 2-2 3-3 5 0 2 0 3 0 5l57 362c1 4 3 9 7 12 3 3 8 4 13 4l137 0c47 0 84-10 104-33 19-21 24-44 19-79 7-4 14-9 19-15 18-20 21-48 15-82-16-81-70-109-139-109l-11 0c-4 0-8-2-11-4-3-3-5-7-6-11l-15-93c-1-4-3-8-6-10-3-3-7-5-11-5l-93 0c-1 0-3 1-4 1-1 1-2 2-3 3-1 1-2 3-3 4 0 1 0 3 0 4l6 37-63 0z m146 190l18 0c69 0 105 26 117 90 1 2 1 5 2 7 3 23 1 33-9 44-10 11-34 19-72 19l-118 0-48-307 33 0 16 99 0 0c3 13 11 26 22 35 11 8 25 13 39 13z"/>
<glyph glyph-name="npmjs" unicode="&#57349;" d="M427 448c11 0 21-10 21-21l0-342c0-11-10-21-21-21l-342 0c-11 0-21 10-21 21l0 342c0 11 10 21 21 21z m-22-43l-298 0 0-298 298 0z m-42-42l0-214-54 0 0 160-53 0 0-160-107 0 0 214z"/>
<glyph glyph-name="github" unicode="&#57351;" d="M256 469c-118 0-213-95-213-213 0-45 14-88 40-125 26-36 63-63 106-77 10-2 14 4 14 10 0 5 0 22 0 39-54-9-68 14-72 26-2 6-13 25-22 30-7 4-18 14 0 14 17 0 29-16 33-22 19-32 50-23 62-18 2 14 7 24 14 29-48 5-97 24-97 105 0 23 8 43 21 58-2 5-9 27 3 56 0 0 17 6 58-22 18 5 36 7 54 7 18 0 36-2 53-7 41 28 59 22 59 22 11-29 4-51 2-56 13-15 22-34 22-58 0-82-50-100-98-105 8-7 15-20 15-40 0-28-1-51-1-58 0-6 4-13 15-10 42 14 79 41 105 77 26 37 40 80 40 125 0 118-95 213-213 213z"/>
<glyph glyph-name="app-store" unicode="&#57353;" d="M256 469c118 0 213-95 213-213 0-118-95-213-213-213-118 0-213 95-213 213 0 118 95 213 213 213z m0-42c-45 0-89-18-121-50-32-32-50-76-50-121 0-45 18-89 50-121 32-32 76-50 121-50 45 0 89 18 121 50 32 32 50 76 50 121 0 45-18 89-50 121-32 32-76 50-121 50z m-68-242l-17-30c-1-2-2-3-4-5-2-1-4-2-6-3-3 0-5-1-7 0-2 0-5 1-7 2-2 1-3 3-5 5-1 1-2 3-3 6 0 2-1 4 0 6 0 3 1 5 2 7l12 22c15 4 26 1 35-10z m94 142l52-89 45 0c2 0 5-1 7-2 2 0 4-2 6-3 1-2 3-4 3-6 1-2 2-4 2-7 0-2-1-4-2-6 0-3-2-5-3-6-2-2-4-3-6-4-2-1-5-1-7-1l-25 0 17-30c2-4 3-9 1-13-1-5-4-8-8-11-4-2-8-2-13-1-4 1-8 4-11 7l-64 113c-15 25-5 51 6 59z m6 65c8-5 11-15 6-24l-75-130 54 0c18 0 28-21 20-35l-159 0c-3 0-5 0-7 1-2 1-4 2-6 4-1 2-3 3-4 6 0 2-1 4-1 6 0 3 1 5 1 7 1 2 3 4 4 6 2 1 4 3 6 4 2 0 4 1 7 1l44 0 58 99-18 31c-2 4-3 9-2 13 2 5 5 8 9 11 3 2 8 3 13 2 4-2 8-4 10-8l8-14 8 14c1 2 2 4 4 5 2 1 4 2 6 3 3 1 5 1 7 0 3 0 5-1 7-2z"/>
<glyph glyph-name="facebook" unicode="&#57355;" d="M299 107l106 0 0 298-298 0 0-298 149 0 0 106-43 0 0 43 43 0 0 35c0 29 3 39 9 50 5 10 13 18 24 24 8 4 18 7 36 8 7 0 16 0 27-2l0-40-11 0c-19 0-27-1-32-4-3-1-5-4-7-7-2-4-3-9-3-29l0-35 53 0-11-43-42 0z m-214 341l342 0c5 0 11-2 15-6 4-4 6-10 6-15l0-342c0-5-2-11-6-15-4-4-10-6-15-6l-342 0c-5 0-11 2-15 6-4 4-6 10-6 15l0 342c0 5 2 11 6 15 4 4 10 6 15 6z"/>
<glyph glyph-name="arrow-left-circle" unicode="&#122;" d="M256 469c118 0 213-95 213-213 0-118-95-213-213-213-118 0-213 95-213 213 0 118 95 213 213 213z m0-384c94 0 171 77 171 171 0 94-77 171-171 171-94 0-171-77-171-171 0-94 77-171 171-171z m0 192l85 0 0-42-85 0 0-64-85 85 85 85z"/>
<glyph glyph-name="arrow-right-circle" unicode="&#71;" d="M256 277l0 64 85-85-85-85 0 64-85 0 0 42z m0 192c118 0 213-95 213-213 0-118-95-213-213-213-118 0-213 95-213 213 0 118 95 213 213 213z m0-384c94 0 171 77 171 171 0 94-77 171-171 171-94 0-171-77-171-171 0-94 77-171 171-171z"/>
<glyph glyph-name="arrow-up-circle" unicode="&#95;" d="M256 469c118 0 213-95 213-213 0-118-95-213-213-213-118 0-213 95-213 213 0 118 95 213 213 213z m0-384c94 0 171 77 171 171 0 94-77 171-171 171-94 0-171-77-171-171 0-94 77-171 171-171z m21 171l0-85-42 0 0 85-64 0 85 85 85-85z"/>
<glyph glyph-name="arrow-down-circle" unicode="&#96;" d="M256 469c118 0 213-95 213-213 0-118-95-213-213-213-118 0-213 95-213 213 0 118 95 213 213 213z m0-384c94 0 171 77 171 171 0 94-77 171-171 171-94 0-171-77-171-171 0-94 77-171 171-171z m21 171l64 0-85-85-85 85 64 0 0 85 42 0z"/>
<glyph glyph-name="apps" unicode="&#124;" d="M139 267c-13 0-25 2-37 7-12 5-22 12-31 21-9 9-16 19-21 31-5 12-7 24-7 37 0 12 2 25 7 36 5 12 12 23 21 32 9 8 19 16 31 20 12 5 24 8 37 8 25 0 50-10 68-28 18-18 28-43 28-68 0-26-10-50-28-68-18-18-43-28-68-28z m10-214c-25 0-50 10-68 28-18 18-28 43-28 68 0 26 10 50 28 68 18 18 43 28 68 28 26 0 50-10 68-28 18-18 28-42 28-68 0-25-10-50-28-68-18-18-42-28-68-28z m214 214c-13 0-25 2-37 7-12 5-22 12-31 21-9 9-16 19-21 31-5 12-7 24-7 37 0 12 2 25 7 36 5 12 12 23 21 32 9 8 19 16 31 20 12 5 24 8 37 8 25 0 50-10 68-28 18-18 28-43 28-68 0-26-10-50-28-68-18-18-43-28-68-28z m0-214c-26 0-50 10-68 28-18 18-28 43-28 68 0 26 10 50 28 68 18 18 42 28 68 28 25 0 50-10 68-28 18-18 28-42 28-68 0-25-10-50-28-68-18-18-43-28-68-28z m-224 256c14 0 27 6 37 16 10 10 16 24 16 38 0 14-6 27-16 37-10 10-23 16-37 16-14 0-28-6-38-16-10-10-16-23-16-37 0-14 6-28 16-38 10-10 24-16 38-16z m10-213c14 0 28 6 38 16 10 10 16 23 16 37 0 14-6 28-16 38-10 10-24 16-38 16-14 0-27-6-37-16-10-10-16-24-16-38 0-14 6-27 16-37 10-10 23-16 37-16z m214 213c14 0 27 6 37 16 10 10 16 24 16 38 0 14-6 27-16 37-10 10-23 16-37 16-14 0-28-6-38-16-10-10-16-23-16-37 0-14 6-28 16-38 10-10 24-16 38-16z m0-213c14 0 27 6 37 16 10 10 16 23 16 37 0 14-6 28-16 38-10 10-23 16-37 16-14 0-28-6-38-16-10-10-16-24-16-38 0-14 6-27 16-37 10-10 24-16 38-16z"/>
<glyph glyph-name="history" unicode="&#125;" d="M256 469c118 0 213-95 213-213 0-118-95-213-213-213-118 0-213 95-213 213l42 0c0-94 77-171 171-171 94 0 171 77 171 171 0 94-77 171-171 171-59 0-110-30-141-75l56 0 0-43-128 0 0 128 42 0 0-53c39 52 101 85 171 85z m21-106l0-98 70-69-31-31-81 82 0 116z"/>
<glyph glyph-name="arrow-right" unicode="&#106;" d="M281 256l-106 106 31 30 135-136-135-136-31 30z"/>
<glyph glyph-name="file-add" unicode="&#126;" d="M341 469l107-106 0-299c0-6-2-11-6-15-4-4-10-6-15-6l-342 0c-5 0-11 2-15 6-4 4-6 9-6 15l0 384c0 12 9 21 21 21z m-106-192l-64 0 0-42 64 0 0-64 42 0 0 64 64 0 0 42-64 0 0 64-42 0z"/>
<glyph glyph-name="file-edit" unicode="&#57346;" d="M448 368l-43-43 0 102-192 0 0-107-106 0 0-235 298 0 0 59 43 43 0-123c0-6-2-11-6-15-4-4-10-6-15-6l-342 0c-3 0-5 0-8 1-3 1-5 3-7 5-2 2-3 4-4 7-1 3-2 5-2 8l0 277 128 128 235 0c11 0 21-9 21-21z m17-44l30-30-166-166-30 0 0 30 166 166z"/>
<glyph glyph-name="folder-add" unicode="&#57347;" d="M265 405l183 0c6 0 11-2 15-6 4-4 6-9 6-15l0-299c0-5-2-11-6-15-4-4-9-6-15-6l-384 0c-6 0-11 2-15 6-4 4-6 10-6 15l0 342c0 5 2 11 6 15 4 4 9 6 15 6l158 0z m-180 0l0-298 342 0 0 256-180 0-42 42z m150-149l0 64 42 0 0-64 64 0 0-43-64 0 0-64-42 0 0 64-64 0 0 43z"/>
<glyph glyph-name="folder" unicode="&#57350;" d="M66 320l380 0c3 0 6-1 9-2 2-1 5-3 7-5 2-2 3-5 4-7 1-3 2-6 1-9l-17-213c-1-6-3-11-7-14-4-4-9-6-15-6l-344 0c-6 0-11 2-15 6-4 3-6 8-7 14l-17 213c-1 3 0 6 1 9 1 2 2 5 4 7 2 2 5 4 7 5 3 1 6 2 9 2z m37-213l306 0 14 170-334 0z m183 298l141 0c5 0 11-2 15-6 4-4 6-9 6-15l0-21-384 0 0 64c0 5 2 11 6 15 4 4 10 6 15 6l158 0z"/>
<glyph glyph-name="file-word" unicode="&#57352;" d="M363 107l64 0 0 298-64 0 0 43 85 0c6 0 11-2 15-6 4-4 6-10 6-15l0-342c0-5-2-11-6-15-4-4-9-6-15-6l-85 0z m-302 344l268 38c2 0 3 0 5 0 1-1 3-2 4-3 1-1 2-2 2-3 1-2 1-3 1-5l0-444c0-2 0-3-1-5 0-1-1-2-2-3-1-1-3-2-4-3-2 0-3 0-5 0l-268 38c-5 1-10 4-13 8-3 3-5 8-5 13l0 348c0 5 2 10 5 13 3 4 8 7 13 8z m24-40l0-310 214-30 0 370z m150-70l42 0 0-170-42 0-43 42-43-42-42 0 0 170 42 0 1-106 42 42 43-42z"/>
<glyph glyph-name="file-pdf" unicode="&#57354;" d="M256 171l-85 0 0 170 85 0c23 0 44-9 60-25 16-16 25-37 25-60 0-23-9-44-25-60-16-16-37-25-60-25z m-43 128l0-86 43 0c11 0 22 5 30 13 8 8 13 19 13 30 0 11-5 22-13 30-8 8-19 13-30 13z m107 128l-213 0 0-342 298 0 0 256-85 0z m-256 21c0 12 10 21 21 21l256 0 107-106 0-299c0-3-1-5-2-8-1-3-2-5-4-7-2-2-4-4-7-5-3-1-5-1-8-1l-342 0c-5 0-11 2-15 6-4 4-6 9-6 15z"/>
<glyph glyph-name="file-excel" unicode="&#57356;" d="M61 451l268 38c2 0 3 0 5 0 1-1 3-2 4-3 1-1 2-2 2-3 1-2 1-3 1-5l0-444c0-2 0-3-1-5 0-1-1-2-2-3-1-1-3-2-4-3-2 0-3 0-5 0l-268 38c-5 1-10 4-13 8-3 3-5 8-5 13l0 348c0 5 2 10 5 13 3 4 8 7 13 8z m24-40l0-310 214-30 0 370z m278-304l64 0 0 298-64 0 0 43 85 0c6 0 11-2 15-6 4-4 6-10 6-15l0-342c0-5-2-11-6-15-4-4-9-6-15-6l-85 0z m-145 149l59-85-51 0-34 48-34-48-51 0 59 85-59 85 51 0 34-48 34 48 51 0z"/>
<glyph glyph-name="logout" unicode="&#57358;" d="M107 277l170 0 0-42-170 0 0-64-107 85 107 85z m-22-149l58 0c25-22 55-36 88-41 32-5 65 0 95 13 30 14 56 36 73 63 18 28 28 60 28 93 0 33-10 65-28 93-17 27-43 49-73 63-30 13-63 18-95 13-33-5-63-19-88-41l-58 0c20 27 46 48 76 63 29 15 62 22 95 22 118 0 213-95 213-213 0-118-95-213-213-213-33 0-66 7-95 22-30 15-56 36-76 63z"/>
<glyph glyph-name="transactions" unicode="&#57359;" d="M427 43l-342 0c-5 0-11 2-15 6-4 4-6 9-6 15l0 384c0 6 2 11 6 15 4 4 10 6 15 6l342 0c5 0 11-2 15-6 4-4 6-9 6-15l0-384c0-6-2-11-6-15-4-4-10-6-15-6z m-22 42l0 342-298 0 0-342z m-234 278l170 0 0-43-170 0z m0-86l170 0 0-42-170 0z m0-85l170 0 0-43-170 0z"/>
<glyph glyph-name="package" unicode="&#57357;" d="M427 448l42-85 0-278c0-5-2-11-6-15-4-4-9-6-15-6l-384 0c-6 0-11 2-15 6-4 4-6 10-6 15l0 278 42 85z m0-128l-342 0 0-213 342 0z m-27 85l-288 0-22-42 332 0z m-293-128l170 0 0-42-170 0z"/>
<glyph glyph-name="driver" unicode="&#57360;" d="M468 90c-4 23-11 46-22 68-18 34-43 61-75 82-4 3-4 3-1 7 21 30 30 64 25 101-4 33-19 61-44 84-18 17-39 28-62 34-1 0-2 0-3 0-18 6-48 2-48 2-12-1-23-4-34-8-20-8-37-20-52-36-8-9-15-20-21-31-13-25-18-52-14-81 2-23 11-45 25-64 3-5 3-5-2-9-17-10-32-24-46-39-14-16-25-33-33-52-7-16-12-31-15-47-2-8-2-17-3-25 0 0 0-1 0-2 0-5-1-13 0-18 0-4 2-8 6-11 3-2 8-2 12-2 130 0 260 0 390 0 2 0 4 0 5 0 7 1 12 6 13 12 1 12 0 23-1 35z m-318 240c1 59 48 106 106 105 59 0 106-48 106-106 0-58-48-106-107-105-58 0-106 48-105 106z m26-254c7 37 41 65 80 65 38 0 72-28 79-65-53 0-106 0-159 0z m150 77c-2-2-3-1-4 0-14 10-29 16-45 19-54 10-111-20-130-76-2-5-3-11-4-17 0-2-1-3-4-3-19 0-39 0-59 0-1 0-3 0-3 3 3 22 9 43 19 62 17 33 41 58 73 75 2 2 4 2 6 0 26-18 55-27 87-26 26 1 51 9 72 24 5 4 8 4 12 1 8-5 16-10 23-16 1-1 2-2 0-3-14-14-29-28-43-43z m106-77c-10 0-20 0-30 0-10 0-20 0-30 0-2 0-3 1-3 3-3 17-9 32-19 46-2 3-2 4 0 6 14 13 28 27 41 40 2 3 3 3 6 0 21-27 33-58 37-92 1-3 0-3-2-3z"/>
<glyph glyph-name="group" unicode="&#57361;" d="M363 171c35 0 64-29 64-64 0-36-29-64-64-64-36 0-64 28-64 64 0 35 28 64 64 64z m-214 85c47 0 86-38 86-85 0-47-39-86-86-86-47 0-85 39-85 86 0 47 38 85 85 85z m214-128c-12 0-22-10-22-21 0-12 10-22 22-22 11 0 21 10 21 22 0 11-10 21-21 21z m-214 85c-23 0-42-19-42-42 0-24 19-43 42-43 24 0 43 19 43 43 0 23-19 42-43 42z m182 256c64 0 117-52 117-117 0-65-53-117-117-117-65 0-118 52-118 117 0 65 53 117 118 117z m0-42c-42 0-75-34-75-75 0-41 33-75 75-75 41 0 74 34 74 75 0 41-33 75-74 75z"/>
<glyph glyph-name="car" unicode="&#57362;" d="M405 107l-298 0 0-22c0-5-3-11-7-15-4-4-9-6-15-6l-21 0c-6 0-11 2-15 6-4 4-6 10-6 15l0 160-27 7c-4 1-9 4-11 8-3 3-5 8-5 13l0 15c0 3 1 6 3 8 2 2 5 3 8 3l32 0 53 123c3 8 8 14 15 19 7 5 15 7 24 7l242 0c9 0 17-2 24-7 7-5 12-11 15-19l53-123 32 0c3 0 6-1 8-3 2-2 3-5 3-8l0-15c0-5-2-10-5-13-2-4-7-7-11-8l-27-7 0-160c0-5-2-11-6-15-4-4-9-6-15-6l-21 0c-6 0-11 2-15 6-4 4-7 10-7 15z m22 42l0 107-342 0 0-107z m-310 150l278 0c4 0 7 1 10 2 3 2 6 4 8 7 2 3 3 6 3 10 1 3 0 7-1 10l-31 77-256 0-31-77c-1-3-2-7-1-10 0-4 1-7 3-10 2-3 5-5 8-7 3-1 6-2 10-2z m-10-64c49 0 82-16 100-49 1-1 1-3 1-5 0-2-1-4-2-5-1-2-2-3-4-4-1-1-3-1-5-1l-69 0c-6 0-11 2-15 6-4 4-6 9-6 15z m298 0l0-43c0-6-2-11-6-15-4-4-9-6-15-6l-69 0c-2 0-4 0-5 1-2 1-3 2-4 4-1 1-2 3-2 5 0 2 1 4 1 5 18 33 51 49 100 49z"/>
<glyph glyph-name="records" unicode="&#57363;" d="M265 405l183 0c6 0 11-2 15-6 4-4 6-9 6-15l0-299c0-5-2-11-6-15-4-4-9-6-15-6l-384 0c-6 0-11 2-15 6-4 4-6 10-6 15l0 342c0 5 2 11 6 15 4 4 9 6 15 6l158 0z m-94-298l256 0 0 170-256 0z m-43 0l0 192c0 5 2 11 6 15 4 4 10 6 15 6l278 0 0 43-180 0-42 42-120 0 0-298z"/>
<glyph glyph-name="id" unicode="&#57364;" d="M265 405l183 0c6 0 11-2 15-6 4-4 6-9 6-15l0-299c0-5-2-11-6-15-4-4-9-6-15-6l-384 0c-6 0-11 2-15 6-4 4-6 10-6 15l0 342c0 5 2 11 6 15 4 4 9 6 15 6l158 0z m-180 0l0-298 342 0 0 256-180 0-42 42z m86-277c0 23 9 44 25 60 16 16 37 25 60 25 23 0 44-9 60-25 16-16 25-37 25-60z m85 107c-14 0-28 5-38 15-10 10-15 24-15 38 0 14 5 28 15 38 10 10 24 15 38 15 14 0 28-5 38-15 10-10 15-24 15-38 0-14-5-28-15-38-10-10-24-15-38-15z"/>
<glyph glyph-name="preview" unicode="&#57365;" d="M341 235l149-87-64-18 46-79-37-21-45 79-48-46z m-42 149l42 0 0-43 107 0c6 0 11-2 15-6 4-4 6-9 6-15l0-85-42 0 0 64-214 0 0-214 86 0 0-42-107 0c-6 0-11 2-15 6-4 4-6 9-6 15l0 107-43 0 0 42 43 0 0 107c0 6 2 11 6 15 4 4 9 6 15 6l107 0z m-214-171l0-42-42 0 0 42z m0 86l0-43-42 0 0 43z m0 85l0-43-42 0 0 43z m0 85l0-42-42 0 0 42z m86 0l0-42-43 0 0 42z m85 0l0-42-43 0 0 42z m85 0l0-42-42 0 0 42z"/>
<glyph glyph-name="color" unicode="&#121;" d="M256 469c118 0 213-85 213-189 0-32-12-62-34-84-23-22-53-35-84-35l-42 0c-20 0-36-16-36-35 0-9 4-18 9-24 6-6 10-15 10-24 0-19-17-35-36-35-118 0-213 95-213 213 0 118 95 213 213 213z m-25-343c0 10 2 20 6 30 4 9 9 18 17 25 7 7 15 13 25 17 9 4 20 6 30 6l42 0c20 0 39 8 53 22 15 14 23 34 23 54 0 80-76 147-171 147-44 0-86-17-118-48-32-30-51-72-53-116-2-44 14-87 43-120 29-33 70-53 114-57-8 12-11 26-11 40z m-71 130c-8 0-17 3-23 9-6 6-9 15-9 23 0 8 3 17 9 23 6 6 15 9 23 9 8 0 17-3 23-9 6-6 9-15 9-23 0-8-3-17-9-23-6-6-15-9-23-9z m192 0c-8 0-17 3-23 9-6 6-9 15-9 23 0 8 3 17 9 23 6 6 15 9 23 9 8 0 17-3 23-9 6-6 9-15 9-23 0-8-3-17-9-23-6-6-15-9-23-9z m-96 64c-8 0-17 3-23 9-6 6-9 15-9 23 0 8 3 17 9 23 6 6 15 9 23 9 8 0 17-3 23-9 6-6 9-15 9-23 0-8-3-17-9-23-6-6-15-9-23-9z"/>
<glyph glyph-name="contacts-book" unicode="&#73;" d="M427 43l-299 0c-17 0-33 6-45 18-12 12-19 29-19 46l0 298c0 17 7 34 19 46 12 12 28 18 45 18l299 0c5 0 11-2 15-6 4-4 6-9 6-15l0-384c0-6-2-11-6-15-4-4-10-6-15-6z m-22 42l0 43-277 0c-6 0-11-2-15-6-4-4-6-10-6-15 0-6 2-11 6-15 4-4 9-7 15-7z m-298 82c6 2 14 4 21 4l277 0 0 256-277 0c-6 0-11-3-15-7-4-4-6-9-6-15z m149 132c-11 0-22 4-30 12-8 8-13 19-13 30 0 12 5 22 13 31 8 8 19 12 30 12 11 0 22-4 30-12 8-9 13-19 13-31 0-11-5-22-13-30-8-8-19-12-30-12z m-64-86c0 17 7 34 19 46 12 12 28 18 45 18 17 0 33-6 45-18 12-12 19-29 19-46z"/>
<glyph glyph-name="download" unicode="&#57366;" d="M64 107l384 0 0-43-384 0z m213 124l130 130 30-31-181-181-181 181 30 31 130-130 0 238 42 0z"/>
<glyph glyph-name="attach" unicode="&#57367;" d="M316 347l-120-121c-2-2-4-4-5-7-1-3-2-5-2-8 0-3 1-6 2-9 1-2 2-5 4-7 2-2 5-3 7-4 3-1 6-2 9-2 3 0 5 1 8 2 3 1 5 3 7 5l121 120c12 12 18 29 18 46 0 17-6 33-18 45-12 12-29 19-46 19-17 0-33-7-45-19l-121-121c-10-10-18-21-23-34-6-13-9-27-9-42 0-14 3-28 8-41 5-13 13-25 23-35 10-10 22-18 35-23 13-5 27-8 41-8 15 0 29 3 42 9 13 5 24 13 34 23l121 121 30-30-121-121c-14-14-30-25-48-32-18-8-38-12-57-12-20 0-39 4-57 12-19 7-35 18-49 32-14 14-25 30-32 49-8 18-12 37-12 57 0 19 4 39 12 57 7 18 18 34 32 48l121 121c20 19 47 30 75 30 28 0 55-12 74-31 20-20 31-47 32-75 0-28-11-55-30-75l-121-121c-6-5-13-10-21-13-8-4-16-5-24-5-9 0-17 1-25 5-8 3-15 8-21 13-5 6-10 13-13 21-4 8-5 16-5 25 0 8 1 16 5 24 3 8 8 15 13 21l121 121z"/>
<glyph glyph-name="languages" unicode="&#57368;" d="M107 192l0-43c0-10 4-21 11-29 7-8 17-12 28-13l3 0 64 0 0-43-64 0c-22 0-44 9-60 25-16 16-25 38-25 60l0 43z m277 107l94-235-46 0-26 64-87 0-26-64-46 0 94 235z m-21-62l-27-66 53 0z m-192 232l0-42 85 0 0-150-85 0 0-64-43 0 0 64-85 0 0 150 85 0 0 42z m192-21c22 0 44-9 60-25 16-16 25-38 25-60l0-43-43 0 0 43c0 11-4 22-12 30-8 8-19 12-30 12l-64 0 0 43z m-235-64l-43 0 0-64 43 0z m85 0l-42 0 0-64 42 0z"/>
<glyph glyph-name="drive" unicode="&#57369;" d="M256 469c118 0 213-95 213-213 0-118-95-213-213-213-118 0-213 95-213 213 0 118 95 213 213 213z m-85-234l-84 0c4-38 22-73 48-100 27-26 62-44 100-48l0 84c-17 0-34 6-46 18-12 12-18 29-18 46z m254 0l-84 0c0-17-6-34-18-46-12-12-29-18-46-18l0-84c38 4 73 22 100 48 26 27 44 62 48 100z m-126 21l-86 0 0-21c0-6 3-11 7-15 4-4 9-7 15-7l42 0c6 0 11 3 15 7 4 4 7 9 7 15z m-43 171c-42 0-82-16-113-43-31-27-51-65-56-107l84 0c0 6 2 11 6 15 4 4 9 7 15 7l128 0c6 0 11-3 15-7 4-4 6-9 6-15l84 0c-5 42-25 80-56 107-31 27-71 43-113 43z"/>
<glyph glyph-name="focus" unicode="&#57370;" d="M277 491l0-66c38-4 73-22 100-48 26-27 44-62 48-100l66 0 0-42-66 0c-4-38-22-73-48-100-27-26-62-44-100-48l0-66-42 0 0 66c-38 4-73 22-100 48-26 27-44 62-48 100l-66 0 0 42 66 0c4 38 22 73 48 100 27 26 62 44 100 48l0 66z m-21-107c-34 0-67-13-91-37-24-24-37-57-37-91 0-34 13-67 37-91 24-24 57-37 91-37 34 0 67 13 91 37 24 24 37 57 37 91 0 34-13 67-37 91-24 24-57 37-91 37z m0-85c11 0 22-5 30-13 8-8 13-19 13-30 0-11-5-22-13-30-8-8-19-13-30-13-11 0-22 5-30 13-8 8-13 19-13 30 0 11 5 22 13 30 8 8 19 13 30 13z"/>
<glyph glyph-name="share" unicode="&#57371;" d="M280 149l-90 49c-11-13-27-22-43-25-17-4-34-3-50 4-16 6-30 17-40 31-9 14-14 31-14 48 0 17 5 34 14 48 10 14 24 25 40 31 16 7 33 8 50 4 16-4 32-12 43-25l90 49c-5 20-3 42 7 60 9 19 25 33 44 40 20 8 41 8 61 1 19-7 36-21 46-39 9-18 12-40 8-60-5-20-16-38-33-50-17-12-38-18-59-16-20 2-39 12-54 27l-89-49c3-14 3-28 0-42l89-49c15 15 34 25 54 27 21 2 42-4 59-16 16-12 28-30 33-50 4-20 1-42-8-60-10-18-27-32-46-39-20-7-41-7-61 1-19 7-35 21-44 40-10 18-12 40-7 60z m-152 64c11 0 22 5 30 13 8 8 13 19 13 30 0 11-5 22-13 30-8 8-19 13-30 13-11 0-22-5-30-13-8-8-13-19-13-30 0-11 5-22 13-30 8-8 19-13 30-13z m235 128c11 0 22 5 30 13 8 8 12 19 12 30 0 11-4 22-12 30-8 8-19 13-30 13-12 0-22-5-30-13-8-8-13-19-13-30 0-11 5-22 13-30 8-8 18-13 30-13z m0-256c11 0 22 5 30 13 8 8 12 19 12 30 0 11-4 22-12 30-8 8-19 13-30 13-12 0-22-5-30-13-8-8-13-19-13-30 0-11 5-22 13-30 8-8 18-13 30-13z"/>
<glyph glyph-name="upload" unicode="&#57372;" d="M64 107l384 0 0-43-384 0z m213 281l0-239-42 0 0 239-130-130-30 30 181 181 181-181-30-30-130 130z"/>
<glyph glyph-name="twitter" unicode="&#57373;" d="M326 394c-16 0-31-7-43-18-12-11-18-27-18-43l-1-34c0-2-1-3-1-5-1-2-2-3-4-4-1-1-3-2-4-3-2 0-4 0-6 0l-33 4c-44 6-86 27-126 60-13-71 12-119 72-157l37-24c2-1 4-2 5-4 1-2 1-4 1-6 1-2 0-4-1-6-1-2-2-4-4-5l-34-25c20-1 40 0 56 3 100 20 167 96 167 221 0 10-21 46-63 46z m-104-60c0 20 7 40 18 57 12 17 28 30 48 38 19 7 40 9 60 5 20-4 38-14 53-29 15 0 28-4 57 14-7-35-11-50-26-71 0-163-100-242-202-263-70-14-171 9-200 40 15 1 75 7 110 33-30 19-147 88-70 273 36-42 73-71 110-86 25-10 31-10 42-11z"/>
<glyph glyph-name="quote-left" unicode="&#44;" d="M98 142c-22 24-34 50-34 92 0 75 52 142 129 175l19-29c-71-39-85-89-91-120 12 6 27 8 41 6 39-3 69-35 69-74 0-20-8-39-22-53-14-14-33-22-53-22-22 0-44 11-58 25z m213 0c-22 24-34 50-34 92 0 75 53 142 129 175l19-29c-71-39-85-89-91-120 12 6 27 8 42 6 38-3 68-35 68-74 0-20-7-39-21-53-14-14-33-22-53-22-23 0-45 11-59 25z"/>
</font>
</defs>
</svg>
