<?xml version="1.0" encoding="utf-8"?>
<!-- Generator: Adobe Illustrator 24.0.1, SVG Export Plug-In . SVG Version: 6.00 Build 0)  -->
<svg version="1.1" id="Layer_1" xmlns="http://www.w3.org/2000/svg" xmlns:xlink="http://www.w3.org/1999/xlink" x="0px" y="0px"
	 viewBox="0 0 190 145" style="enable-background:new 0 0 190 145;" xml:space="preserve">
<style type="text/css">
	.st0{fill:#E3E3E3;}
</style>
<path class="st0" d="M20.6,67.4C20.6,36,46,10.6,77.4,10.6c15.3,0,29.1,6.1,39.3,15.9l-12.9,12.9C97,32.9,87.7,28.9,77.5,28.9
	c-21.3,0-38.6,17.3-38.6,38.6c0,10.3,4,19.6,10.6,26.5l-12.9,12.9C26.7,96.7,20.6,82.8,20.6,67.4z M136.1,26.8l-28.4,28.4l13.6,13.6
	l52-52h-12.9C151.3,16.8,142.6,20.4,136.1,26.8z M121.1,84.1l-15.6-15.3c-3.2-3.2-7.5-4.9-12-4.9H65.7v20.2h27.2l31,30.5
	c12.9,12.7,30.3,19.8,48.4,19.8L121.1,84.1z"/>
</svg>
