<svg width="32" height="32" viewBox="0 0 32 32" fill="none" xmlns="http://www.w3.org/2000/svg">
<path d="M9.88322 22.653C9.58322 22.453 9.32522 22.198 9.02322 21.837C8.86647 21.6452 8.71113 21.4522 8.55722 21.258C8.09422 20.683 7.80222 20.418 7.50022 20.309C7.25052 20.2194 7.04666 20.0342 6.93348 19.7943C6.8203 19.5543 6.80708 19.2792 6.89672 19.0295C6.98637 18.7798 7.17153 18.576 7.41149 18.4628C7.65144 18.3496 7.92652 18.3364 8.17622 18.426C8.92822 18.696 9.43722 19.161 10.1232 20.014C10.0292 19.897 10.4632 20.441 10.5562 20.553C10.7462 20.78 10.8862 20.918 10.9962 20.991C11.2002 21.128 11.5832 21.187 12.1462 21.131C12.1692 20.749 12.2402 20.378 12.3482 20.036C9.38022 19.31 7.70022 17.396 7.70022 13.64C7.70022 12.4 8.07022 11.284 8.75822 10.348C8.54022 9.45402 8.57322 8.37302 9.06022 7.15602C9.11549 7.01836 9.2007 6.89471 9.30966 6.79405C9.41862 6.69339 9.54862 6.61823 9.69022 6.57402C9.77122 6.55002 9.81722 6.53902 9.89822 6.52702C10.7012 6.40402 11.8352 6.69702 13.3132 7.62302C14.194 7.41711 15.0957 7.31375 16.0002 7.31502C16.9122 7.31502 17.8182 7.41902 18.6842 7.62302C20.1612 6.69002 21.2972 6.39702 22.1062 6.52702C22.1912 6.54002 22.2632 6.55702 22.3242 6.57702C22.4631 6.6228 22.5902 6.69846 22.6966 6.79867C22.803 6.89887 22.8862 7.0212 22.9402 7.15702C23.4272 8.37302 23.4602 9.45402 23.2422 10.347C23.9332 11.283 24.3002 12.392 24.3002 13.64C24.3002 17.397 22.6262 19.305 19.6582 20.032C19.7832 20.447 19.8482 20.911 19.8482 21.412C19.8483 22.3174 19.8443 23.2227 19.8362 24.128C20.0608 24.177 20.2616 24.3019 20.405 24.4816C20.5483 24.6613 20.6253 24.8849 20.623 25.1147C20.6208 25.3446 20.5395 25.5667 20.3927 25.7436C20.2459 25.9205 20.0427 26.0414 19.8172 26.086C18.6782 26.314 17.8342 25.554 17.8342 24.561L17.8362 24.115L17.8412 23.41C17.8462 22.702 17.8482 22.072 17.8482 21.412C17.8482 20.715 17.6652 20.26 17.4232 20.052C16.7622 19.482 17.0972 18.397 17.9632 18.3C20.9302 17.967 22.3002 16.818 22.3002 13.64C22.3002 12.685 21.9882 11.896 21.3872 11.236C21.2606 11.0973 21.1756 10.9257 21.142 10.7408C21.1084 10.556 21.1275 10.3655 21.1972 10.191C21.3632 9.77702 21.4342 9.23402 21.2932 8.57702L21.2832 8.58002C20.7922 8.71902 20.1732 9.02002 19.4252 9.52902C19.3046 9.61088 19.1676 9.66537 19.0237 9.68869C18.8798 9.71201 18.7325 9.70359 18.5922 9.66402C17.7481 9.43031 16.8761 9.31289 16.0002 9.31502C15.1102 9.31502 14.2282 9.43402 13.4082 9.66502C13.2684 9.70428 13.1218 9.71263 12.9785 9.68949C12.8351 9.66635 12.6985 9.61227 12.5782 9.53102C11.8262 9.02402 11.2042 8.72402 10.7102 8.58402C10.5662 9.23702 10.6372 9.77802 10.8022 10.191C10.872 10.3654 10.8913 10.5559 10.8579 10.7407C10.8245 10.9255 10.7397 11.0972 10.6132 11.236C10.0162 11.89 9.70022 12.694 9.70022 13.64C9.70022 16.812 11.0712 17.968 14.0222 18.3C14.8872 18.397 15.2232 19.477 14.5662 20.048C14.3742 20.216 14.1372 20.78 14.1372 21.412V24.562C14.1372 25.548 13.3022 26.287 12.1772 26.09C11.949 26.0499 11.7418 25.9319 11.5909 25.7559C11.4401 25.58 11.3551 25.3572 11.3504 25.1255C11.3456 24.8938 11.4215 24.6677 11.565 24.4857C11.7086 24.3038 11.9108 24.1774 12.1372 24.128V23.138C11.2272 23.199 10.4752 23.05 9.88322 22.653V22.653Z" fill="#03053D"/>
</svg>
