<?xml version="1.0" encoding="utf-8"?>
<!-- Generator: Adobe Illustrator 24.0.1, SVG Export Plug-In . SVG Version: 6.00 Build 0)  -->
<svg version="1.1" id="Layer_1" xmlns="http://www.w3.org/2000/svg" xmlns:xlink="http://www.w3.org/1999/xlink" x="0px" y="0px"
	 viewBox="0 0 270 150" style="enable-background:new 0 0 270 150;" xml:space="preserve">
<style type="text/css">
	.st0{fill:url(#SVGID_1_);}
</style>
<linearGradient id="SVGID_1_" gradientUnits="userSpaceOnUse" x1="50.9675" y1="-11.9747" x2="229.7211" y2="166.7789" gradientTransform="matrix(1 0 0 -1 0 151)">
	<stop  offset="0" style="stop-color:#EB1D34"/>
	<stop  offset="1" style="stop-color:#FF5768;stop-opacity:0.5"/>
</linearGradient>
<path class="st0" d="M10.3,122.3c-4.4-4.7-6.7-11.5-6.7-20.1v-57c0-8.7,2.2-15.4,6.7-20.1c4.4-4.7,10.8-7.1,19.2-7.1
	s14.7,2.4,19.2,7.1c4.4,4.7,6.7,11.4,6.7,20.1v56.9c0,8.7-2.2,15.4-6.7,20.1c-4.4,4.7-10.8,7.1-19.2,7.1S14.8,127,10.3,122.3z
	 M38.3,103.2V44.1c0-7.1-2.9-10.7-8.8-10.7s-8.8,3.6-8.8,10.7v59.1c0,7.1,2.9,10.7,8.8,10.7S38.3,110.3,38.3,103.2z M72.2,122.3
	c-4.4-4.7-6.7-11.5-6.7-20.1v-57c0-8.7,2.2-15.4,6.7-20.1C76.6,20.3,83,18,91.4,18s14.7,2.4,19.2,7.1c4.4,4.7,6.7,11.4,6.7,20.1
	v56.9c0,8.7-2.2,15.4-6.7,20.1c-4.4,4.7-10.8,7.1-19.2,7.1S76.6,127,72.2,122.3z M100.2,103.2V44.1c0-7.1-2.9-10.7-8.8-10.7
	s-8.8,3.6-8.8,10.7v59.1c0,7.1,2.9,10.7,8.8,10.7S100.2,110.3,100.2,103.2z M128.7,19.5h25.1c8.5,0,14.8,2.3,19,6.8s6.3,11.2,6.3,20
	V57c0,8.8-2.1,15.4-6.3,20c-4.2,4.5-10.6,6.8-19,6.8h-8v44.1h-17V19.5H128.7z M153.8,68.3c2.8,0,4.9-0.8,6.3-2.3
	c1.4-1.5,2.1-4.2,2.1-7.9V45.2c0-3.7-0.7-6.3-2.1-7.9s-3.5-2.3-6.3-2.3h-8v33.3H153.8z M192.4,122.3c-4.2-4.7-6.3-11.4-6.3-20.2V96
	h16.1v7.4c0,7,2.9,10.5,8.8,10.5c2.9,0,5.1-0.9,6.6-2.6s2.2-4.5,2.2-8.3c0-4.5-1-8.5-3.1-12s-5.9-7.6-11.5-12.5
	c-7-6.2-11.9-11.8-14.7-16.8s-4.2-10.6-4.2-16.9c0-8.6,2.2-15.2,6.5-19.9s10.6-7,18.9-7c8.1,0,14.3,2.3,18.5,7s6.3,11.4,6.3,20.2
	v4.5h-16.1V44c0-3.7-0.7-6.4-2.2-8.1c-1.4-1.7-3.6-2.6-6.3-2.6c-5.7,0-8.5,3.5-8.5,10.4c0,3.9,1.1,7.6,3.2,11
	c2.1,3.4,6,7.5,11.5,12.4c7.1,6.2,12,11.8,14.7,16.9s4,11,4,17.8c0,8.9-2.2,15.7-6.6,20.4c-4.4,4.7-10.8,7.1-19.1,7.1
	C202.9,129.4,196.7,127,192.4,122.3z M248,64.7V19.5h17v45.2l-2.2,34.5h-12.7L248,64.7z M248.3,111.4h16.4v16.4h-16.4L248.3,111.4
	L248.3,111.4z"/>
</svg>
